<svg xmlns="http://www.w3.org/2000/svg" viewBox="0 0 166.24 120.27"><defs><style>.cls-1{fill:#0072c5;}.cls-2{fill:#b9b9b9;opacity:0.68;}.cls-3{fill:#baf1ff;}.cls-4{fill:#444;}</style></defs><title>Asset 154</title><g id="Layer_2" data-name="Layer 2"><g id="Layer_2-2" data-name="Layer 2"><path class="cls-1" d="M161.79,0h-3.65a4.44,4.44,0,0,0-4.36,3.65H138.11a8.43,8.43,0,0,0-8.42,8.42V22.37a4.47,4.47,0,0,1-4.47,4.47h-4.9c0-.12,0-.24,0-.36a4.44,4.44,0,0,0-4.4-4h-3.65a4.45,4.45,0,0,0-4.44,4.44v3.65A4.45,4.45,0,0,0,112.24,35h3.65a4.44,4.44,0,0,0,4.42-4.19h4.92a8.43,8.43,0,0,0,8.42-8.42V12.07a4.47,4.47,0,0,1,4.47-4.47H153.7v.5a4.45,4.45,0,0,0,4.44,4.44h3.65a4.45,4.45,0,0,0,4.45-4.44V4.44A4.45,4.45,0,0,0,161.79,0ZM116.39,30.53a.5.5,0,0,1-.5.5h-3.65a.49.49,0,0,1-.49-.5V26.88a.49.49,0,0,1,.49-.5h3.65a.5.5,0,0,1,.5.5Zm45.9-22.44a.5.5,0,0,1-.5.5h-3.65a.49.49,0,0,1-.49-.5V4.44a.5.5,0,0,1,.49-.5h3.65a.5.5,0,0,1,.5.5V8.09Z"/><path class="cls-2" d="M109.08,61.07h3.82V49.36L100.37,42l-4.49,2.43a4.1,4.1,0,1,1-4-5,4.06,4.06,0,0,1,1.56.31l4.35-2.36L97.7,25,73.61,11.35,64,16.79V61.07h3.62a4.1,4.1,0,1,1,.06,5.26H64V110.6L73.61,116,97.7,102.42,97.78,90l-4.23-2.29A4.1,4.1,0,1,1,95.85,83l4.51,2.44L112.9,78V66.32H109a4.1,4.1,0,1,1,.06-5.26ZM90.26,72.65,79.53,80V92.22L81,93.52h.22a4.1,4.1,0,1,1-4.07,3.62l-2.9-2.53V77.24L85,69.88V57.51L74.28,50.15V32.78l2.89-2.52q0-.17,0-.35a4.1,4.1,0,1,1,4.1,4.1l-.37,0-1.35,1.18V47.38l10.72,7.36Z"/><path class="cls-3" d="M105.9,62.71a.95.95,0,1,0,.85,1.35l.19-.39-.17-.39A1,1,0,0,0,105.9,62.71Z"/><path class="cls-3" d="M91.87,42.63a.95.95,0,1,0,.95,1l0-.5-.34-.27A.94.94,0,0,0,91.87,42.63Z"/><path class="cls-3" d="M90.92,84a1,1,0,0,0,.95.95.93.93,0,0,0,.61-.23l.33-.28v-.46a.95.95,0,0,0-1.89,0Z"/><path class="cls-3" d="M70.84,64.61A.95.95,0,1,0,70,63.28l-.17.39.19.39A.94.94,0,0,0,70.84,64.61Z"/><path class="cls-2" d="M10.67,59.56a4.1,4.1,0,1,1-3.11,6.76H3.68V78l12.54,7.36L20.73,83A4.1,4.1,0,1,1,23,87.69L18.79,90l.08,12.44L43,116l9.57-5.45V66.32H48.85a4.1,4.1,0,1,1,.06-5.26h3.62V16.79L43,11.35,18.88,25l-.08,12.46,4.35,2.36a4.06,4.06,0,0,1,1.56-.31,4.1,4.1,0,1,1-4,5L16.21,42,3.68,49.36V61.07H7.5A4.1,4.1,0,0,1,10.67,59.56Zm15.65-4.82L37,47.38V35.17L35.69,34l-.37,0a4.1,4.1,0,1,1,4.1-4.1q0,.18,0,.35l2.89,2.52V50.15L31.58,57.51V69.88L42.3,77.24V94.61l-2.9,2.53a4.1,4.1,0,1,1-4.07-3.62h.22L37,92.22V80L26.32,72.65Z"/><path class="cls-3" d="M10.67,62.71a.95.95,0,1,1-.85,1.35l-.19-.39.17-.39A1,1,0,0,1,10.67,62.71Z"/><path class="cls-3" d="M24.71,42.63a.95.95,0,1,1-.95,1l0-.5.34-.27A.94.94,0,0,1,24.71,42.63Z"/><path class="cls-3" d="M25.65,84a1,1,0,0,1-.95.95.93.93,0,0,1-.61-.23l-.33-.28v-.46a.95.95,0,0,1,1.89,0Z"/><path class="cls-3" d="M45.73,64.61a.95.95,0,1,1,.87-1.33l.17.39-.19.39A.94.94,0,0,1,45.73,64.61Z"/><path class="cls-4" d="M78,34.46l2.47-2.16a2.53,2.53,0,1,0-1.53-1.46L75.85,33.5V49.32l10.72,7.36v14L75.85,78.07V93.89l3.09,2.7a2.53,2.53,0,1,0,1.6-1.39L78,92.94V79.18l10.72-7.36V55.57L78,48.21Z"/><path class="cls-4" d="M101.47,38.38l-.11-15.57L73.61,7.12,60.36,14.65v98.09l13.25,7.54,27.75-15.7L101.47,89l15.11-8.87V47.25ZM100.38,87.2l-6-3.24h0a2.53,2.53,0,1,0-.89,1.92L99.36,89l-.1,14.3L73.61,117.86l-11.15-6.34V64.75h6.1a2.52,2.52,0,1,0,0-2.1H62.47V15.88L73.61,9.53,99.27,24l.1,14.32-6,3.22a2.52,2.52,0,1,0,1,2s0-.09,0-.13l6-3.26,14.07,8.26V62.64h-6.26a2.52,2.52,0,1,0,0,2.1h6.29V78.93Z"/><path class="cls-4" d="M38.62,34.46,36.15,32.3a2.53,2.53,0,1,1,1.53-1.46l3.05,2.66V49.32L30,56.68v14l10.72,7.36V93.89l-3.09,2.7A2.53,2.53,0,1,1,36,95.2l2.59-2.26V79.18L27.9,71.82V55.57l10.72-7.36Z"/><path class="cls-4" d="M0,47.25V80.14L15.11,89l.11,15.57L43,120.27l13.25-7.54V14.65L43,7.12,15.21,22.81l-.11,15.57ZM2.1,78.93V64.75H8.4a2.52,2.52,0,1,0,0-2.1H2.1V48.46L16.18,40.2l6,3.26s0,.09,0,.13a2.53,2.53,0,1,0,1-2l-6-3.22L17.31,24,43,9.53l11.15,6.34V62.64H48a2.52,2.52,0,1,0,0,2.1h6.1v46.77L43,117.86,17.31,103.35,17.21,89l5.86-3.17A2.52,2.52,0,1,0,22.18,84h0l-6,3.24Z"/><circle class="cls-1" cx="81.23" cy="29.92" r="1.76"/><circle class="cls-1" cx="81.23" cy="97.63" r="1.76"/><circle class="cls-1" cx="91.86" cy="43.6" r="1.76"/><circle class="cls-1" cx="91.86" cy="83.91" r="1.76"/><circle class="cls-1" cx="105.92" cy="63.68" r="1.76"/><circle class="cls-1" cx="70.84" cy="63.68" r="1.76"/><circle class="cls-1" cx="35.37" cy="29.92" r="1.76"/><circle class="cls-1" cx="35.37" cy="97.63" r="1.76"/><circle class="cls-1" cx="24.74" cy="43.6" r="1.76"/><circle class="cls-1" cx="24.74" cy="83.91" r="1.76"/><circle class="cls-1" cx="10.68" cy="63.68" r="1.76"/><circle class="cls-1" cx="45.76" cy="63.68" r="1.76"/></g></g></svg>