<svg xmlns="http://www.w3.org/2000/svg" viewBox="0 0 159.28 123.27"><defs><style>.cls-1{fill:#b9b9b9;}.cls-2{fill:#ececec;}.cls-3,.cls-6{fill:#444;}.cls-3{opacity:0.9;}.cls-4{fill:#282828;opacity:0.5;}.cls-5{fill:#0072c5;opacity:0.8;}.cls-6{opacity:0.42;}</style></defs><title>Asset 156</title><g id="Layer_2" data-name="Layer 2"><g id="Layer_2-2" data-name="Layer 2"><path class="cls-1" d="M53.4,123.27c19.77,0,37-1.86,46.26-4.61h0c4.54-1.36,7.14-2.93,7.14-4.61a1.66,1.66,0,0,0,0-.35V95.93a1.66,1.66,0,0,0,0-.35c0-1.68-2.6-3.26-7.14-4.61h0c-9.23,2.76-26.49,4.61-46.26,4.61S16.38,93.73,7.14,91h0C2.6,92.33,0,93.91,0,95.59v18.29H0c0,.05,0,.11,0,.16,0,1.68,2.6,3.26,7.14,4.61h0C16.38,121.41,33.63,123.27,53.4,123.27Z"/><path class="cls-2" d="M32.7,56.37,35,56.22Z"/><path class="cls-2" d="M32.53,56.39C13.41,57.79,0,61.07,0,64.88H0C0,61.07,13.41,57.79,32.53,56.39Z"/><path class="cls-1" d="M53.4,92.56c19.77,0,37-1.86,46.26-4.61h0c4.54-1.36,7.14-2.93,7.14-4.61a1.66,1.66,0,0,0,0-.35V65.23c-1.05,4.94-24.54,8.88-53.36,8.88C23.91,74.11,0,70,0,64.88V83.18H0c0,.05,0,.11,0,.16C0,85,2.6,86.59,7.14,87.95h0C16.38,90.71,33.63,92.56,53.4,92.56Z"/><path class="cls-2" d="M106.8,64.88a1.63,1.63,0,0,1,0,.19,1.4,1.4,0,0,0,0-.19c0-5.1-23.91-9.23-53.4-9.23h0C82.89,55.66,106.8,59.79,106.8,64.88Z"/><path class="cls-2" d="M38.84,56l2.45-.11Z"/><path class="cls-2" d="M36.34,56.14,38.72,56Z"/><path class="cls-3" d="M53.4,74.11c28.82,0,52.31-3.95,53.36-8.88,0-.05,0-.11,0-.16a1.63,1.63,0,0,0,0-.19c0-5.1-23.91-9.23-53.4-9.23h0c-4.17,0-8.22.08-12.11.24L38.84,56h-.12l-2.37.13-1.3.08-2.34.16h-.17C13.41,57.79,0,61.07,0,64.88,0,70,23.91,74.11,53.4,74.11Z"/><path class="cls-3" d="M104.27,92.78C99.49,94.64,87,98.23,58.75,99.92c-33.16,2-47.46-6.25-51-8.78L7.14,91C2.6,92.33,0,93.91,0,95.59c0,5.1,23.91,9.23,53.4,9.23s53.4-4.13,53.4-9.23C106.8,94.61,105.91,93.66,104.27,92.78Z"/><path class="cls-3" d="M58.75,99.92c28.21-1.7,40.74-5.28,45.52-7.14A24.93,24.93,0,0,0,99.66,91c-9.23,2.76-26.49,4.61-46.26,4.61-19.35,0-36.29-1.78-45.66-4.44C11.29,93.67,25.59,101.91,58.75,99.92Z"/><path class="cls-4" d="M58.75,99.92c32.63-.32,40.74-5.28,45.52-7.14A24.93,24.93,0,0,0,99.66,91c-9.23,2.76-26.49,4.61-46.26,4.61-19.35,0-36.29-1.78-45.66-4.44C11.29,93.67,25.53,100.25,58.75,99.92Z"/><rect class="cls-5" x="55.3" y="11.25" width="14.42" height="14.42"/><rect class="cls-5" x="16.46" y="11.25" width="14.42" height="14.42"/><rect class="cls-5" x="55.3" y="29.79" width="14.42" height="14.42"/><rect class="cls-5" x="35.88" y="29.79" width="14.42" height="14.42"/><rect class="cls-5" x="74.72" y="48.32" width="14.42" height="14.42"/><rect class="cls-5" x="55.3" y="48.32" width="14.42" height="14.42"/><rect class="cls-5" x="35.88" y="48.32" width="14.42" height="14.42"/><rect class="cls-5" x="16.46" y="48.32" width="14.42" height="14.42"/><path class="cls-6" d="M126.26,42.24c-7.84,0-15.67-.07-23.51,0-8.11.1-14.56-5.61-15.52-12.35A13.35,13.35,0,0,1,91.77,17.5a14.94,14.94,0,0,1,14-3.61c1,.24,1.52.14,1.93-.85A20.73,20.73,0,0,1,118.27,2.28,23.41,23.41,0,0,1,143.92,6a20.41,20.41,0,0,1,6.59,12.33,20.3,20.3,0,0,1-.33,7.12c-.13.62-.08.84.7.9a8.88,8.88,0,0,1,6.46,3,7.17,7.17,0,0,1,.94,8.55,8.06,8.06,0,0,1-7.51,4.32C142.6,42.26,134.43,42.24,126.26,42.24Z"/></g></g></svg>