<svg xmlns="http://www.w3.org/2000/svg" viewBox="0 0 442.65 408.6"><defs><style>.cls-1{opacity:0.2;}.cls-2{fill:none;}.cls-3{fill:#878787;}</style></defs><title>Asset 72</title><g id="Layer_2" data-name="Layer 2"><g id="Layer_2-2" data-name="Layer 2"><g class="cls-1"><polygon class="cls-2" points="134.1 0.47 61.33 182.11 215.31 116.22 315.74 73.24 134.1 0.47"/><polygon class="cls-2" points="283.35 348.22 283.14 348.26 308.7 407.99 441.44 231.39 283.2 348.1 283.35 348.22"/><polygon class="cls-2" points="60.88 182.17 133.24 1.54 0.61 178.01 60.73 182.27 60.7 182.04 60.88 182.17"/><polygon class="cls-2" points="197.93 124.09 61.36 182.53 131.63 234.98 282.7 347.74 316.02 73.56 197.93 124.09"/><polygon class="cls-2" points="60.6 182.86 60.68 182.66 0.54 178.4 87.17 380.84 71.03 259.58 60.8 182.77 60.6 182.86"/><polygon class="cls-2" points="316.27 72.92 354.7 26.48 135.47 0.59 316.1 72.95 316.13 72.74 316.27 72.92"/><polygon class="cls-2" points="283.12 347.67 442.13 230.38 316.41 73.73 283.12 347.67"/><polygon class="cls-2" points="282.61 348.54 282.63 348.35 238.78 356.02 88.94 382.23 308.34 408.14 297.11 381.92 282.78 348.41 282.61 348.54"/><polygon class="cls-2" points="76.26 295.85 87.73 382.03 282.37 347.99 61.23 182.93 76.26 295.85"/><polygon class="cls-2" points="316.79 73.23 316.59 73.31 413.21 193.71 441.66 229.15 355.03 26.71 328.37 58.92 316.6 73.15 316.79 73.23"/><polygon class="cls-3" points="60.73 182.27 60.73 182.27 0.61 178.01 133.24 1.54 60.88 182.17 60.88 182.17 133.73 0.32 133.68 0.3 0.14 177.97 0.24 177.98 60.73 182.27"/><polygon class="cls-3" points="60.68 182.66 0.54 178.4 0.54 178.4 60.68 182.66 60.68 182.66"/><polygon class="cls-3" points="316.02 73.56 282.7 347.74 282.7 347.74 316.02 73.56 197.93 124.09 316.02 73.56"/><polygon class="cls-3" points="61.36 182.53 131.63 234.98 61.36 182.53 61.36 182.53"/><polygon class="cls-3" points="316.41 73.73 283.12 347.67 283.12 347.67 316.41 73.73 316.41 73.73"/><polygon class="cls-3" points="61.33 182.11 215.31 116.22 61.33 182.11 61.33 182.11"/><polygon class="cls-3" points="61.36 182.53 61.36 182.53 197.93 124.09 61.36 182.53"/><polygon class="cls-3" points="134.1 0.47 315.74 73.24 215.31 116.22 315.74 73.24 134.1 0.47 61.33 182.11 61.33 182.11 134.1 0.47"/><polygon class="cls-3" points="60.79 182.67 60.79 182.67 60.68 182.66 60.68 182.66 60.79 182.67"/><polygon class="cls-3" points="61.33 182.11 134.1 0.47 133.73 0.32 60.88 182.17 60.99 182.25 61.33 182.11"/><polygon class="cls-3" points="61.36 182.53 61.36 182.53 61.36 182.53 197.93 124.09 316.02 73.56 316.05 73.36 315.74 73.24 215.31 116.22 61.33 182.11 61.33 182.11 61.33 182.11 61.21 182.41 61.36 182.53"/><polygon class="cls-3" points="61.14 182.29 61.15 182.37 61.21 182.41 61.33 182.11 60.99 182.25 61.04 182.29 61.14 182.29"/><polygon class="cls-3" points="88.94 382.23 88.94 382.23 238.78 356.02 88.94 382.23"/><polygon class="cls-3" points="282.7 347.74 282.7 347.74 131.63 234.98 282.7 347.74"/><polygon class="cls-3" points="60.8 182.77 71.03 259.58 60.8 182.77 60.8 182.77"/><polygon class="cls-3" points="76.26 295.85 61.23 182.93 282.37 347.99 282.37 347.99 61.22 182.93 76.26 295.85"/><polygon class="cls-3" points="60.88 182.17 60.88 182.17 60.83 182.27 60.73 182.27 60.73 182.27 60.83 182.27 60.88 182.17"/><polygon class="cls-3" points="282.7 347.74 282.7 347.74 282.7 347.74 131.63 234.98 61.36 182.53 61.18 182.61 61.22 182.93 282.37 347.99 282.68 347.93 282.7 347.74"/><polygon class="cls-3" points="60.79 182.67 60.8 182.77 60.8 182.77 60.79 182.67 60.79 182.67"/><polygon class="cls-3" points="60.93 182.28 60.99 182.25 60.88 182.17 60.83 182.27 60.93 182.28"/><circle class="cls-3" cx="60.79" cy="182.67"/><polygon class="cls-3" points="61.17 182.51 61.18 182.61 61.36 182.53 61.21 182.41 61.17 182.51"/><polygon class="cls-3" points="61.15 182.37 61.16 182.46 61.17 182.51 61.21 182.41 61.15 182.37"/><polygon class="cls-3" points="60.99 182.25 60.93 182.28 61.04 182.29 60.99 182.25"/><polygon class="cls-3" points="316.59 73.31 413.21 193.71 316.59 73.31 316.59 73.31"/><polygon class="cls-3" points="283.12 347.67 283.12 347.67 442.13 230.38 442.13 230.38 283.12 347.67"/><polygon class="cls-3" points="283.2 348.1 283.2 348.1 441.44 231.39 441.44 231.39 283.2 348.1"/><polygon class="cls-3" points="283.12 347.67 316.41 73.73 316.2 73.48 316.02 73.56 282.7 347.74 282.86 347.85 283.12 347.67 283.12 347.67 283.12 347.67"/><polygon class="cls-3" points="316.59 73.31 316.59 73.31 316.52 73.24 316.52 73.24 316.59 73.31"/><polygon class="cls-3" points="316.05 73.36 316.02 73.56 316.2 73.48 316.14 73.4 316.05 73.36"/><polygon class="cls-3" points="283.11 348.17 283.2 348.1 283.2 348.1 283.11 348.17 283.11 348.17"/><polygon class="cls-3" points="282.78 347.91 282.86 347.85 282.7 347.74 282.68 347.93 282.78 347.91"/><polygon class="cls-3" points="71.03 259.58 87.17 380.84 0.54 178.4 0.09 178.37 87.28 382.11 87.34 382.1 71.03 259.58"/><polygon class="cls-3" points="76.26 295.85 87.73 382.03 87.73 382.03 76.26 295.85"/><polygon class="cls-3" points="0.54 178.4 60.68 182.66 60.72 182.55 60.56 182.44 60.74 182.36 60.73 182.27 0.24 177.98 0.14 177.97 0.07 178.06 0 178.15 0.09 178.37 0.54 178.4 0.54 178.4"/><polygon class="cls-3" points="60.74 182.36 60.56 182.44 60.72 182.55 60.76 182.46 60.74 182.36"/><polygon class="cls-3" points="60.78 182.59 60.72 182.55 60.68 182.66 60.79 182.67 60.78 182.59"/><polygon class="cls-3" points="60.76 182.46 60.72 182.55 60.78 182.59 60.76 182.46"/><polygon class="cls-3" points="61.04 182.29 61.08 182.32 61.15 182.37 61.14 182.29 61.04 182.29"/><polygon class="cls-3" points="87.73 382.03 76.26 295.85 61.22 182.93 60.94 182.71 60.8 182.77 71.03 259.58 87.34 382.1 87.53 382.07 87.73 382.03"/><polygon class="cls-3" points="60.83 182.27 60.73 182.27 60.74 182.36 60.81 182.33 60.83 182.27"/><polygon class="cls-3" points="61.12 182.63 61.09 182.69 61 182.69 60.94 182.71 61.22 182.93 61.18 182.61 61.12 182.63"/><polygon class="cls-3" points="61.09 182.69 61.12 182.63 61 182.69 61.09 182.69"/><polygon class="cls-3" points="60.78 182.41 60.81 182.33 60.74 182.36 60.76 182.46 60.78 182.41"/><polygon class="cls-3" points="60.79 182.67 60.8 182.77 60.94 182.71 60.89 182.68 60.79 182.67"/><polygon class="cls-3" points="60.93 182.28 60.83 182.27 60.81 182.33 60.88 182.3 60.93 182.28"/><polygon class="cls-3" points="60.79 182.67 60.89 182.68 60.78 182.59 60.79 182.67 60.79 182.67 60.79 182.67"/><polygon class="cls-3" points="60.89 182.68 60.94 182.71 61 182.69 60.89 182.68"/><polygon class="cls-3" points="61.12 182.63 61.18 182.61 61.17 182.51 61.12 182.63"/><polygon class="cls-3" points="61 182.69 61.12 182.63 61.17 182.51 61.16 182.46 61.15 182.37 61.08 182.32 61.04 182.29 60.93 182.28 60.88 182.3 60.81 182.33 60.78 182.41 60.76 182.46 60.78 182.59 60.89 182.68 61 182.69"/><polygon class="cls-3" points="355.03 26.71 328.37 58.92 355.03 26.71 355.03 26.71"/><polygon class="cls-3" points="316.1 72.95 316.1 72.95 135.47 0.59 354.7 26.48 316.27 72.92 316.27 72.92 355 26.12 134.27 0.04 134.25 0.1 316.1 72.95"/><polygon class="cls-3" points="134.07 0.03 134.25 0.1 134.27 0.04 134.04 0.02 134.07 0.03"/><polygon class="cls-3" points="133.82 0.11 133.68 0.3 133.73 0.32 133.82 0.11"/><polygon class="cls-3" points="134.1 0.47 315.74 73.24 316.08 73.09 316.1 72.95 134.25 0.1 134.18 0.29 134.1 0.47"/><polygon class="cls-3" points="134.18 0.29 134.25 0.1 134.07 0.03 134.04 0.02 133.9 0 133.82 0.11 133.73 0.32 134.1 0.47 134.18 0.29"/><polygon class="cls-3" points="316.06 73.29 316.01 73.23 316.07 73.15 316.08 73.09 315.74 73.24 316.05 73.36 316.06 73.29"/><polygon class="cls-3" points="316.27 72.92 316.27 72.92 316.2 72.99 316.1 72.95 316.1 72.95 316.2 73 316.27 72.92"/><polygon class="cls-3" points="316.14 73.07 316.2 73 316.1 72.95 316.08 73.09 316.14 73.07"/><polygon class="cls-3" points="316.06 73.29 316.05 73.36 316.14 73.4 316.06 73.29"/><polygon class="cls-3" points="316.11 73.11 316.14 73.07 316.08 73.09 316.07 73.15 316.11 73.11"/><polygon class="cls-3" points="441.66 229.15 413.21 193.71 442.46 230.14 442.5 230.1 355.32 26.36 355.03 26.71 441.66 229.15"/><polygon class="cls-3" points="442.13 230.38 442.13 230.38 316.41 73.73 316.41 73.73 442.13 230.38"/><polygon class="cls-3" points="328.37 58.92 316.6 73.15 316.6 73.15 328.37 58.92"/><circle class="cls-3" cx="316.41" cy="73.73" transform="translate(40.54 245.33) rotate(-45)"/><polygon class="cls-3" points="316.52 73.24 316.6 73.15 316.6 73.15 316.52 73.24 316.52 73.24"/><polygon class="cls-3" points="316.45 73.37 316.41 73.73 442.13 230.38 442.13 230.38 442.13 230.38 442.46 230.14 413.21 193.71 316.59 73.31 316.45 73.37"/><polygon class="cls-3" points="316.33 73.47 316.27 73.45 316.2 73.48 316.41 73.73 316.41 73.73 316.41 73.73 316.45 73.37 316.39 73.4 316.33 73.47"/><polygon class="cls-3" points="316.45 73.37 316.59 73.31 316.52 73.24 316.52 73.24 316.52 73.24 316.46 73.32 316.45 73.37"/><polygon class="cls-3" points="316.19 73.42 316.14 73.4 316.2 73.48 316.27 73.45 316.19 73.42"/><polygon class="cls-3" points="316.39 73.4 316.45 73.37 316.46 73.32 316.39 73.4"/><polygon class="cls-3" points="316.33 72.99 316.51 72.91 316.48 73.11 316.6 73.15 328.37 58.92 355.03 26.71 355.03 26.71 355.32 26.36 355.27 26.25 355.23 26.14 355 26.12 316.27 72.92 316.33 72.99"/><polygon class="cls-3" points="316.48 73.11 316.51 72.91 316.33 72.99 316.39 73.07 316.48 73.11"/><polygon class="cls-3" points="316.52 73.24 316.6 73.15 316.48 73.11 316.48 73.17 316.52 73.24"/><polygon class="cls-3" points="316.42 73.11 316.48 73.17 316.48 73.11 316.39 73.07 316.42 73.11"/><polygon class="cls-3" points="316.01 73.23 316.06 73.29 316.07 73.15 316.01 73.23"/><polygon class="cls-3" points="316.26 73.02 316.33 72.99 316.27 72.92 316.2 73 316.26 73.02"/><polygon class="cls-3" points="316.39 73.07 316.33 72.99 316.26 73.02 316.39 73.07"/><polygon class="cls-3" points="316.39 73.4 316.34 73.42 316.27 73.45 316.33 73.47 316.39 73.4"/><polygon class="cls-3" points="316.46 73.32 316.52 73.24 316.48 73.17 316.46 73.26 316.46 73.32"/><polygon class="cls-3" points="316.2 73 316.14 73.07 316.26 73.02 316.2 73"/><polygon class="cls-3" points="316.07 73.15 316.06 73.29 316.14 73.4 316.19 73.42 316.27 73.45 316.34 73.42 316.39 73.4 316.46 73.32 316.46 73.26 316.48 73.17 316.42 73.11 316.39 73.07 316.26 73.02 316.14 73.07 316.11 73.11 316.07 73.15"/><polygon class="cls-3" points="297.11 381.92 282.78 348.41 282.78 348.41 297.11 381.92"/><polygon class="cls-3" points="442.38 230.69 441.44 231.39 308.7 407.99 308.89 408.41 442.43 230.74 442.38 230.69"/><polygon class="cls-3" points="283.12 347.67 283.07 348.01 283.2 348.1 441.44 231.39 441.44 231.39 442.38 230.69 442.13 230.38 283.12 347.67"/><polygon class="cls-3" points="282.74 348.33 282.78 348.41 282.78 348.41 282.74 348.33 282.74 348.33"/><polygon class="cls-3" points="282.91 347.89 282.98 347.88 283.02 347.97 283.07 348.01 283.12 347.67 282.86 347.85 282.91 347.89"/><polygon class="cls-3" points="283.11 348.17 283.2 348.1 283.07 348.01 283.07 348.07 283.11 348.17"/><polygon class="cls-3" points="282.91 347.89 282.86 347.85 282.78 347.91 282.91 347.89"/><polygon class="cls-3" points="283.07 348.07 283.07 348.01 283.02 347.97 283.07 348.07"/><polygon class="cls-3" points="442.59 230.31 442.5 230.1 442.46 230.14 442.59 230.31"/><polygon class="cls-3" points="442.54 230.58 442.38 230.69 442.43 230.74 442.56 230.56 442.54 230.58"/><polygon class="cls-3" points="442.56 230.56 442.58 230.54 442.65 230.44 442.59 230.31 442.46 230.14 442.13 230.38 442.38 230.69 442.54 230.58 442.56 230.56"/><polygon class="cls-3" points="238.78 356.02 282.63 348.35 282.63 348.35 238.78 356.02"/><polygon class="cls-3" points="87.73 382.03 282.37 347.99 282.37 347.99 87.73 382.03 87.73 382.03"/><polygon class="cls-3" points="283.14 348.26 308.7 407.99 308.7 407.99 283.14 348.26 283.14 348.26"/><polygon class="cls-3" points="308.34 408.14 88.94 382.23 87.78 382.43 87.79 382.5 308.52 408.57 297.11 381.92 308.34 408.14"/><polygon class="cls-3" points="283.11 348.17 283.11 348.17 283.14 348.26 283.14 348.26 283.11 348.17"/><polygon class="cls-3" points="238.78 356.02 282.63 348.35 282.65 348.19 282.37 347.99 282.37 347.99 282.37 347.99 87.73 382.03 87.78 382.43 88.94 382.23 88.94 382.23 238.78 356.02"/><polygon class="cls-3" points="282.61 348.04 282.67 347.99 282.68 347.93 282.37 347.99 282.65 348.19 282.65 348.13 282.61 348.04"/><polygon class="cls-3" points="282.63 348.35 282.74 348.33 282.74 348.33 282.63 348.35 282.63 348.35"/><circle class="cls-3" cx="283.11" cy="348.17" transform="translate(-163.27 302.16) rotate(-45)"/><polygon class="cls-3" points="282.65 348.19 282.63 348.35 282.74 348.33 282.7 348.23 282.65 348.19"/><polygon class="cls-3" points="282.65 348.13 282.65 348.19 282.7 348.23 282.65 348.13"/><polygon class="cls-3" points="282.67 347.99 282.74 347.94 282.78 347.91 282.68 347.93 282.67 347.99"/><polygon class="cls-3" points="87.36 382.29 87.34 382.1 87.28 382.11 87.37 382.32 87.36 382.29"/><polygon class="cls-3" points="87.57 382.47 87.79 382.5 87.78 382.43 87.57 382.47"/><rect class="cls-3" x="87.73" y="382.03"/><polygon class="cls-3" points="87.73 382.03 87.73 382.03 87.53 382.07 87.34 382.1 87.36 382.29 87.37 382.32 87.38 382.34 87.42 382.45 87.57 382.47 87.78 382.43 87.73 382.03 87.73 382.03"/><polygon class="cls-3" points="308.7 407.99 283.14 348.26 283.04 348.27 283.02 348.47 282.86 348.35 282.78 348.41 297.11 381.92 308.52 408.57 308.63 408.58 308.75 408.6 308.89 408.41 308.7 407.99 308.7 407.99"/><polygon class="cls-3" points="282.86 348.35 283.02 348.47 283.04 348.27 282.94 348.29 282.86 348.35"/><polygon class="cls-3" points="283.05 348.21 283.04 348.27 283.14 348.26 283.11 348.17 283.05 348.21"/><polygon class="cls-3" points="282.94 348.29 283.04 348.27 283.05 348.21 282.94 348.29"/><polygon class="cls-3" points="282.65 348.13 282.66 348.08 282.67 347.99 282.61 348.04 282.65 348.13"/><polygon class="cls-3" points="282.74 348.33 282.74 348.33 282.74 348.33 282.78 348.41 282.86 348.35 282.81 348.31 282.74 348.33"/><polygon class="cls-3" points="282.98 347.88 282.91 347.89 283.02 347.97 282.98 347.88"/><polygon class="cls-3" points="282.89 348.3 282.81 348.31 282.86 348.35 282.94 348.29 282.89 348.3"/><polygon class="cls-3" points="283.11 348.17 283.07 348.07 283.05 348.21 283.11 348.17 283.11 348.17 283.11 348.17"/><polygon class="cls-3" points="282.7 348.23 282.74 348.33 282.81 348.31 282.74 348.26 282.7 348.23"/><polygon class="cls-3" points="283.02 347.97 282.91 347.89 282.78 347.91 282.74 347.94 282.67 347.99 282.66 348.08 282.65 348.13 282.7 348.23 282.74 348.26 282.81 348.31 282.89 348.3 282.94 348.29 283.05 348.21 283.07 348.07 283.02 347.97"/></g></g></g></svg>