<svg xmlns="http://www.w3.org/2000/svg" xmlns:xlink="http://www.w3.org/1999/xlink" viewBox="0 0 260.44 159.05"><defs><style>.cls-1,.cls-14{fill:#fff;}.cls-15,.cls-2{fill:#444;}.cls-2,.cls-6{opacity:0.9;}.cls-3{fill:#bbb;}.cls-4{opacity:0.35;}.cls-5{clip-path:url(#clip-path);}.cls-7{isolation:isolate;}.cls-8{fill:#c5c5c5;}.cls-9{fill:#818181;}.cls-10{fill:gray;}.cls-11{fill:#cdcdcd;}.cls-12{fill:#b7b7b7;}.cls-13{fill:#828282;}.cls-14{opacity:0.72;}.cls-16{fill:#eee;}.cls-17{fill:#b9b9b9;}.cls-18{fill:#0072c5;}.cls-19{fill:none;stroke:#0072c5;stroke-linecap:round;stroke-miterlimit:10;stroke-width:2px;}</style><clipPath id="clip-path"><rect class="cls-1" x="31.07" y="41.31" width="123.19" height="76.68"/></clipPath></defs><title>Asset 158</title><g id="Layer_2" data-name="Layer 2"><g id="Layer_2-2" data-name="Layer 2"><path class="cls-2" d="M25.62,123.43V38.58a2.77,2.77,0,0,1,2.72-2.72H157a2.77,2.77,0,0,1,2.72,2.72v84.85Z"/><path class="cls-3" d="M159.71,123.43v10.89A2.77,2.77,0,0,1,157,137H28.35a2.77,2.77,0,0,1-2.72-2.72V123.43Z"/><rect class="cls-3" x="63.96" y="156.32" width="57.4" height="2.72"/><polygon class="cls-2" points="111.73 156.32 73.6 156.32 76.32 137.05 109.01 137.05 111.73 156.32"/><polygon class="cls-4" points="76.34 137.05 109.02 137.05 110.54 147.81 75.85 140.51 76.34 137.05"/><rect class="cls-1" x="31.07" y="41.31" width="123.19" height="76.68"/><g class="cls-5"><g class="cls-6"><g class="cls-7"><polygon class="cls-8" points="6.12 57.11 193.44 141.68 193.44 141.78 6.12 57.21 6.12 57.11"/><polygon class="cls-9" points="24.75 49.34 212.07 133.9 193.44 141.68 6.12 57.11 24.75 49.34"/><polygon class="cls-8" points="24.63 44.11 211.94 128.68 212.07 133.9 24.75 49.34 24.63 44.11"/><polygon class="cls-8" points="25.16 65.11 212.47 149.68 212.61 154.91 25.29 70.34 25.16 65.11"/><polygon class="cls-10" points="25.29 70.34 212.61 154.91 187.42 143.82 0.11 59.26 25.29 70.34"/><polygon class="cls-11" points="24.63 44.11 24.75 49.34 6.12 57.11 6.12 57.21 25.16 65.11 25.29 70.34 0.11 59.26 0 55.02 24.63 44.11"/></g><g class="cls-7"><polygon class="cls-12" points="44.62 36.63 231.94 121.2 221.75 156.91 34.43 72.34 44.62 36.63"/><polygon class="cls-10" points="34.43 72.34 221.75 156.91 216.51 156.9 29.19 72.33 34.43 72.34"/><polygon class="cls-11" points="39.38 36.62 44.62 36.63 34.43 72.34 29.19 72.33 39.38 36.62"/></g><g class="cls-7"><polygon class="cls-10" points="67.41 57.32 254.72 141.88 235.27 133.99 47.96 49.42 67.41 57.32"/><polygon class="cls-13" points="73.12 59.66 260.44 144.23 235.81 154.99 48.49 70.42 73.12 59.66"/><polygon class="cls-8" points="73 55.12 260.32 139.69 260.44 144.23 73.12 59.66 73 55.12"/><polygon class="cls-11" points="47.82 44.19 73 55.12 73.12 59.66 48.49 70.42 48.36 65.2 67.41 57.41 67.41 57.32 47.96 49.42 47.82 44.19"/></g></g><rect class="cls-14" x="39.09" y="57.3" width="125.64" height="71.19"/></g><g class="cls-6"><path class="cls-15" d="M57.72,80.32,81.56,69.24V74.5l-18,7.9v.1l18,7.9v5.26L57.72,84.59V80.32Z"/><path class="cls-15" d="M85.24,97.65l10.63-36h5l-10.63,36h-5Z"/><path class="cls-15" d="M127.61,84.74,103.77,95.67V90.4l18.43-7.9v-.1l-18.43-7.9V69.24l23.84,10.93Z"/></g><path class="cls-16" d="M132.24,26.26a31.1,31.1,0,0,0-3.72,7l-.1.23a4.2,4.2,0,0,1-.49-.1c-7.46-1.9-14.39,0-20.05,5.6a22,22,0,0,0-6.54,19.45,22.34,22.34,0,0,0,7.31,13.71,21.86,21.86,0,0,0,14.59,5.61h.28c7.17-.09,14.46-.07,21.51,0l9.47,0h11.93Z"/><path class="cls-17" d="M152.3,71.13c-9,0-18-.08-27,0-9.32.11-16.74-6.45-17.85-14.2a15.35,15.35,0,0,1,5.23-14.28,17.18,17.18,0,0,1,16.15-4.15c1.2.28,1.75.16,2.22-1a23.84,23.84,0,0,1,12.1-12.38,26.92,26.92,0,0,1,29.49,4.25,22.93,22.93,0,0,1,7.2,22.37c-.14.71-.09,1,.81,1a10.22,10.22,0,0,1,7.43,3.5c2.53,3.07,2.94,6.44,1.08,9.83a9.27,9.27,0,0,1-8.63,5C171.1,71.15,161.7,71.13,152.3,71.13Z"/><path class="cls-18" d="M152.3,72.61l-8.26,0c-6.15,0-12.51,0-18.76,0H125a20,20,0,0,1-12.72-4.49,17.51,17.51,0,0,1-6.37-11,16.77,16.77,0,0,1,5.7-15.59,18.72,18.72,0,0,1,17.49-4.49l.43.08.09-.19a25.24,25.24,0,0,1,12.82-13.14,28.4,28.4,0,0,1,31.14,4.49,25,25,0,0,1,8,15.05,24,24,0,0,1-.27,8,11.41,11.41,0,0,1,7.8,4c3,3.58,3.39,7.56,1.24,11.49a10.71,10.71,0,0,1-9.93,5.74c-6.69,0-13.48,0-20.06,0H152.3m-28-33.14a15.58,15.58,0,0,0-10.69,4.3,14,14,0,0,0-4.76,13C109.92,64,117,69.67,125,69.67h.2c6.27-.07,12.64-.06,18.8,0l8.25,0h8.15c6.57,0,13.37,0,20,0a7.8,7.8,0,0,0,7.33-4.2c1.56-2.86,1.26-5.54-.92-8.18a8.68,8.68,0,0,0-6.4-3,2.44,2.44,0,0,1-1.85-.84,2.35,2.35,0,0,1-.29-2,21.78,21.78,0,0,0,.37-7.67,22.12,22.12,0,0,0-7.12-13.31,25.44,25.44,0,0,0-27.84-4,22.36,22.36,0,0,0-11.37,11.61c-.93,2.24-2.59,2.16-3.93,1.85A18.09,18.09,0,0,0,124.32,39.47Z"/><path class="cls-1" d="M125,70.41c-8.39,0-15.81-6-16.9-13.56a14.66,14.66,0,0,1,5-13.62,16.33,16.33,0,0,1,11.19-4.49,18.9,18.9,0,0,1,4.3.52c1.36.32,2.4.2,3.08-1.41a23.08,23.08,0,0,1,11.73-12A26.18,26.18,0,0,1,172.1,30a22.84,22.84,0,0,1,7.35,13.74,22.49,22.49,0,0,1-.38,7.93,1.65,1.65,0,0,0,.16,1.37,1.73,1.73,0,0,0,1.32.55,9.38,9.38,0,0,1,6.92,3.24c2.36,2.86,2.7,5.89,1,9a8.49,8.49,0,0,1-8,4.58c-6.72,0-13.5,0-20,0H152.3l-8.25,0h0c-6.14,0-12.5,0-18.75,0Z"/><path class="cls-17" d="M126.32,41.47a14.27,14.27,0,0,0-9.52,3.67,11.53,11.53,0,0,0-4.22,11c.92,6.15,7.25,11,14.41,11h.18C133,67,139,67,144.71,67h15.36c6.12,0,12.45,0,18.72,0,2.86,0,5.07-1.09,6.24-3.4a5.15,5.15,0,0,0-.79-5.41,7.6,7.6,0,0,0-5.5-2.41,3,3,0,0,1-2.23-1,2.61,2.61,0,0,1-.4-2.28,24.53,24.53,0,0,0,.34-7.76A18.84,18.84,0,0,0,170,33.31a22.54,22.54,0,0,0-13.31-5.5,23.08,23.08,0,0,0-11.93,2,19.75,19.75,0,0,0-10.29,10,3.53,3.53,0,0,1-4.47,2A17,17,0,0,0,126.32,41.47Z"/><line class="cls-19" x1="155.29" y1="1.24" x2="155.29" y2="17.47"/><polyline class="cls-19" points="149.32 18.27 149.32 10.54 146.26 6.93"/><polyline class="cls-19" points="142.84 20.57 142.84 14.71 139.78 11.1"/><ellipse class="cls-18" cx="139.65" cy="11" rx="0.98" ry="1.03"/><ellipse class="cls-18" cx="146.14" cy="6.76" rx="0.98" ry="1.03"/><polyline class="cls-19" points="160.69 18.27 160.69 10.54 163.75 6.93"/><polyline class="cls-19" points="167.17 20.57 167.17 14.71 170.23 11.1"/><ellipse class="cls-18" cx="170.1" cy="11.27" rx="0.98" ry="1.03"/><ellipse class="cls-18" cx="163.75" cy="6.93" rx="0.98" ry="1.03"/><ellipse class="cls-18" cx="155.29" cy="1.03" rx="0.98" ry="1.03"/></g></g></svg>