<svg xmlns="http://www.w3.org/2000/svg" viewBox="0 0 308 308"><defs><style>.cls-1{fill:#dbd9d9;}.cls-2{fill:#bababa;}.cls-3{fill:#8e8e8e;}.cls-4{fill:#666;}.cls-5{fill:#ba131a;}.cls-6{fill:#ef3f54;}</style></defs><title>Asset 112</title><g id="Layer_2" data-name="Layer 2"><g id="Layer_2-2" data-name="Layer 2"><circle class="cls-1" cx="154" cy="154" r="154"/><path class="cls-2" d="M304.4,187.2l-74.29-74.29L207,110.74,177.18,81.2l-50.54,53.9-21.44-21.44-17,59-46.66,31.6L144.94,307.73c3,.17,6,.27,9.06.27A154,154,0,0,0,304.4,187.2Z"/><path class="cls-3" d="M217.42,186.47l-27.86-12.84-.41,0v-.11l-11.59-8.73v.08a7.8,7.8,0,0,0-2-3.74l-.15.17V146.93a82.18,82.18,0,0,0,7.14-13.16c1.76-1.14,7.35-5.53,7.61-13.12.24-6.83-2.05-8.47-4.08-8.5C186.61,107.4,189.05,73,154,73c-37.69,0-32.34,39.74-32.34,39.74h0c-2,.25-4.08,1.72-3.75,8a17.33,17.33,0,0,0,7.61,13.12,82.27,82.27,0,0,0,7.11,13.11v14.37a7.89,7.89,0,0,0-1.87,3.61l-11.52,8.68V174l-27,12.44a17.93,17.93,0,0,0-10.09,12.81l-4.78,24.18S81.95,235,154.81,235s77.47-11.58,77.47-11.58l-4.78-24.18A17.93,17.93,0,0,0,217.42,186.47Z"/><path class="cls-3" d="M110.5,133.68c.32-3,1.86-24.8-20.34-24.8C66.31,108.88,69.7,134,69.7,134c-1.25.16-2.58,1.09-2.37,5a11,11,0,0,0,4.82,8.3,52,52,0,0,0,4.5,8.3v9.09A5,5,0,0,0,75.45,167l-7.29,5.49v.31l-17.08,7.87a11.35,11.35,0,0,0-6.38,8.11l-3,15.3s2.26,5.67,34.17,7l2.49-12.62A21.85,21.85,0,0,1,90.6,183l22.31-10.28-.22-.1h-.26v-.07L105.1,167v0a4.94,4.94,0,0,0-1.25-2.37l-.09.11v-9.1a52,52,0,0,0,4.52-8.33,10.71,10.71,0,0,0,4.82-8.3C113.23,134.74,111.79,133.7,110.5,133.68Z"/><path class="cls-3" d="M256.91,180.71l-17.63-8.12H239v-.07L231.7,167v0a4.94,4.94,0,0,0-1.25-2.37l-.09.11v-9.1a52,52,0,0,0,4.52-8.33,10.71,10.71,0,0,0,4.82-8.3c.15-4.32-1.3-5.36-2.58-5.38.32-3,1.86-24.8-20.34-24.8-23.85,0-20.46,25.14-20.46,25.14-1.25.16-2.58,1.09-2.37,5a11,11,0,0,0,4.82,8.3,52.07,52.07,0,0,0,4.5,8.3v9.09a5,5,0,0,0-1.18,2.28l-6.68,5L219,183a21.85,21.85,0,0,1,12.25,15.56l2.48,12.54c30.37-1.48,32.56-7,32.56-7l-3-15.3A11.35,11.35,0,0,0,256.91,180.71Z"/><path class="cls-4" d="M154.81,235h0c72.86,0,77.47-11.58,77.47-11.58l-4.78-24.18a17.93,17.93,0,0,0-10.09-12.81l-27.86-12.84-.41,0v-.11l-11.59-8.73s0,0,0,.08a7.8,7.8,0,0,0-2-3.74l-.15.17V146.93a82.18,82.18,0,0,0,7.14-13.16c1.76-1.14,7.35-5.53,7.61-13.12.24-6.83-2.05-8.47-4.08-8.5.5-4.7,2.9-38.62-31.29-39.18Z"/><path class="cls-4" d="M231.28,198.54l2.48,12.54c30.37-1.48,32.56-7,32.56-7l-3-15.3a11.35,11.35,0,0,0-6.38-8.11l-17.63-8.12H239v-.07L231.7,167v0a4.94,4.94,0,0,0-1.25-2.37l-.09.11v-9.1a52,52,0,0,0,4.52-8.33,10.71,10.71,0,0,0,4.82-8.3c.15-4.32-1.3-5.36-2.58-5.38.32-3,1.86-24.8-20.34-24.8h-.08v73L219,183A21.85,21.85,0,0,1,231.28,198.54Z"/><path class="cls-4" d="M89.27,183.65c.43-.24.88-.47,1.33-.67l22.31-10.28-.22-.1h-.26v-.07L105.1,167v0a4.94,4.94,0,0,0-1.25-2.37l-.09.11v-9.1a52.07,52.07,0,0,0,4.52-8.33,10.71,10.71,0,0,0,4.82-8.3c.15-4.32-1.3-5.36-2.58-5.38.32-3,1.86-24.8-20.34-24.8-.31,0-.59,0-.89,0Z"/><polyline class="cls-5" points="154.82 179.83 159.19 179.83 165.22 222.24 154.84 233.8"/><polyline class="cls-5" points="154.82 179.83 159.19 179.83 165.22 168.27 154.81 168.27"/><polyline class="cls-6" points="154.79 233.8 144.4 222.24 150.44 179.83 154.81 179.83"/><polyline class="cls-6" points="154.81 179.83 150.44 179.83 144.4 168.27 154.81 168.27"/></g></g></svg>