<svg xmlns="http://www.w3.org/2000/svg" viewBox="0 0 35 35"><defs><style>.cls-1{fill:#848484;}</style></defs><title>Asset 65</title><g id="Layer_2" data-name="Layer 2"><g id="Layer_2-2" data-name="Layer 2"><path class="cls-1" d="M17.5,0A17.5,17.5,0,1,0,35,17.5,17.52,17.52,0,0,0,17.5,0Zm0,33A15.5,15.5,0,1,1,33,17.5,15.52,15.52,0,0,1,17.5,33Z"/><path class="cls-1" d="M22.89,26.37a7.62,7.62,0,0,1-2.61-.56,19.59,19.59,0,0,1-6.59-4.51,19.6,19.6,0,0,1-4.51-6.59c-.74-2-.74-3.56,0-4.29l.32-.34a3.48,3.48,0,0,1,2.43-1.46,2.91,2.91,0,0,1,2,1.31c2,2.52,1.11,3.42.06,4.46l-.19.19c-.17.17-.5,1,2.54,4a16.87,16.87,0,0,0,2.52,2.16c.43.28,1.19.7,1.5.38L20.6,21c1-1.06,1.94-2,4.46.06a2.91,2.91,0,0,1,1.31,2,3.46,3.46,0,0,1-1.46,2.43l-.34.32A2.32,2.32,0,0,1,22.89,26.37Zm-11-17.15c-.71,0-1.36.68-1.93,1.28l-.33.35c-.55.55-.49,2,.14,3.66a19,19,0,0,0,4.37,6.38,19,19,0,0,0,6.37,4.37c1.68.63,3.11.69,3.66.14l.35-.33c.61-.58,1.31-1.24,1.28-2a2.41,2.41,0,0,0-1.09-1.61c-2.1-1.69-2.69-1.09-3.66-.11l-.19.19c-.47.47-1.22.36-2.25-.3A17.43,17.43,0,0,1,16,19c-2.53-2.52-3.33-4.07-2.54-4.86l.19-.19c1-1,1.59-1.56-.1-3.66a2.42,2.42,0,0,0-1.61-1.09Z"/></g></g></svg>