<svg xmlns="http://www.w3.org/2000/svg" viewBox="0 0 35 35"><defs><style>.cls-1{fill:#848484;}</style></defs><title>Asset 64</title><g id="Layer_2" data-name="Layer 2"><g id="Layer_2-2" data-name="Layer 2"><path class="cls-1" d="M17.5,0A17.5,17.5,0,1,0,35,17.5,17.52,17.52,0,0,0,17.5,0Zm0,33A15.5,15.5,0,1,1,33,17.5,15.52,15.52,0,0,1,17.5,33Z"/><path class="cls-1" d="M27.79,11v0a.36.36,0,0,0,0-.08s0,0,0,0a.34.34,0,0,0,0-.1v0h0l-.08-.08h0l-.08,0h-.18L7.48,14.76a.34.34,0,0,0-.09.64l5.7,3,1,5.55s0,0,0,0a.32.32,0,0,0,0,.08v0a.33.33,0,0,0,0,.09v0h0l0,0,.05.05h0l.07,0h0l.09,0h0a.34.34,0,0,0,.24-.11l3.8-2.53,4,2.58a.34.34,0,0,0,.19.06l.11,0a.34.34,0,0,0,.21-.21l4.8-13v-.05Zm-4,2.19-8.23,6,0,0h0l0,0,0,0,0,.06h0l-.94,3.06-.75-4.15Zm-8.76,9.95L16,20.09l1.45.95.42.27-1.41.94ZM25,11.83l-11.65,6L8.55,15.24ZM22.48,23.49,17.2,20.06l-.8-.52,10.34-7.6Z"/></g></g></svg>