<svg xmlns="http://www.w3.org/2000/svg" viewBox="0 0 35 35"><defs><style>.cls-1{fill:#848484;}</style></defs><title>Asset 66</title><g id="Layer_2" data-name="Layer 2"><g id="Layer_2-2" data-name="Layer 2"><path class="cls-1" d="M17.5,0A17.5,17.5,0,1,0,35,17.5,17.52,17.52,0,0,0,17.5,0Zm0,33A15.5,15.5,0,1,1,33,17.5,15.52,15.52,0,0,1,17.5,33Z"/><path class="cls-1" d="M17.5,5.11a9,9,0,0,0-9,9c0,6.14,8,15.16,8.37,15.54a.81.81,0,0,0,1.2,0c.34-.38,8.37-9.4,8.37-15.54A9,9,0,0,0,17.5,5.11Zm0,22.73c-2.7-3.21-7.36-9.54-7.36-13.76a7.36,7.36,0,1,1,14.72,0C24.86,18.3,20.2,24.63,17.5,27.84Z"/><path class="cls-1" d="M17.5,9.57A4.52,4.52,0,1,0,22,14.08,4.52,4.52,0,0,0,17.5,9.57Zm0,7.41a2.9,2.9,0,1,1,2.9-2.9A2.9,2.9,0,0,1,17.5,17Z"/></g></g></svg>