<svg xmlns="http://www.w3.org/2000/svg" viewBox="0 0 216.35 216.35"><defs><style>.cls-1,.cls-8{fill:#efefef;}.cls-2,.cls-6{fill:none;}.cls-2,.cls-8{stroke:#444;stroke-miterlimit:10;}.cls-2{stroke-width:3.94px;}.cls-3{fill:#bababa;}.cls-4,.cls-7{fill:#444;}.cls-4{opacity:0.9;}.cls-5{fill:#ededed;}.cls-6{stroke:#d13434;stroke-linecap:round;stroke-linejoin:round;stroke-width:4.72px;}.cls-8{stroke-width:0.64px;}.cls-9{fill:#282828;opacity:0.5;}.cls-10{fill:#ba131a;}.cls-11{fill:#a5131e;}</style></defs><title>Asset 113</title><g id="Layer_2" data-name="Layer 2"><g id="Layer_4" data-name="Layer 4"><circle class="cls-1" cx="108.18" cy="108.18" r="108.18"/><path class="cls-2" d="M164.77,74.19V94.45a8,8,0,0,1-8,8H131.87"/><path class="cls-3" d="M139.65,164.33a2,2,0,0,0,0-.42c0-2-3.13-3.92-8.61-5.56h0c-11.12,3.32-31.92,5.56-55.73,5.56s-44.61-2.24-55.73-5.56h0C14.15,160,11,161.89,11,163.91v22h0c0,.06,0,.13,0,.19,0,6.14,28.81,11.12,64.34,11.12s64.34-5,64.34-11.12a2,2,0,0,0,0-.42Z"/><path class="cls-4" d="M19.63,158.35C14.15,160,11,161.89,11,163.91,11,170.05,39.82,175,75.36,175s64.34-5,64.34-11.12c0-2-3.13-3.92-8.61-5.56-11.12,3.32-31.92,5.56-55.73,5.56S30.75,161.68,19.63,158.35Z"/><path class="cls-3" d="M75.36,160.27c23.82,0,44.61-2.24,55.73-5.56h0c5.47-1.64,8.61-3.53,8.61-5.56a2,2,0,0,0,0-.42v-21.4a2,2,0,0,0,0-.42c0-2-3.13-3.92-8.61-5.56h0c-11.12,3.32-31.92,5.56-55.73,5.56s-44.61-2.24-55.73-5.56h0C14.15,123,11,124.89,11,126.92v22h0c0,.06,0,.13,0,.19,0,2,3.13,3.92,8.61,5.56h0C30.75,158,51.54,160.27,75.36,160.27Z"/><path class="cls-5" d="M50.42,79.67l2.82-.19Z"/><path class="cls-5" d="M50.21,79.69C27.17,81.38,11,85.33,11,89.92h0C11,85.33,27.17,81.38,50.21,79.69Z"/><path class="cls-3" d="M75.36,123.27c23.82,0,44.61-2.24,55.73-5.56h0c5.47-1.64,8.61-3.53,8.61-5.56a2,2,0,0,0,0-.42V90.34c-1.27,5.95-29.57,10.7-64.29,10.7C39.82,101,11,96.06,11,89.92v22h0c0,.06,0,.13,0,.19,0,2,3.13,3.92,8.61,5.56h0C30.75,121,51.54,123.27,75.36,123.27Z"/><path class="cls-5" d="M139.7,89.92a2,2,0,0,1,0,.22,1.69,1.69,0,0,0,0-.23c0-6.14-28.81-11.12-64.34-11.12h0C110.89,78.81,139.7,83.78,139.7,89.92Z"/><path class="cls-5" d="M57.82,79.23l2.95-.13Z"/><path class="cls-5" d="M54.81,79.39l2.86-.15Z"/><path class="cls-4" d="M75.36,101c34.73,0,63-4.75,64.29-10.7,0-.06,0-.13,0-.19a2,2,0,0,0,0-.22c0-6.14-28.81-11.12-64.34-11.12h0c-5,0-9.91.1-14.6.29l-2.95.13h-.15l-2.86.15-1.57.1-2.82.19h-.2C27.17,81.38,11,85.33,11,89.92,11,96.06,39.82,101,75.36,101Z"/><line class="cls-6" x1="75.36" y1="42.07" x2="75.36" y2="71.34"/><line class="cls-6" x1="41.07" y1="51.04" x2="51.93" y2="72.75"/><line class="cls-6" x1="109.64" y1="51.04" x2="98.79" y2="72.75"/><rect class="cls-7" x="151.06" y="29.34" width="57.09" height="28.54" rx="11.11" ry="11.11"/><rect class="cls-8" x="157.48" y="45.49" width="5.75" height="5.75" rx="2.24" ry="2.24"/><path class="cls-4" d="M136.65,123.53c-5.76,2.24-20.86,6.57-54.84,8.61-40,2.4-57.19-7.53-61.46-10.57l-.72-.21C14.15,123,11,124.89,11,126.92,11,133.06,39.82,138,75.36,138s64.34-5,64.34-11.12C139.7,125.74,138.62,124.6,136.65,123.53Z"/><path class="cls-4" d="M81.81,132.14c34-2,49.08-6.37,54.84-8.61a30,30,0,0,0-5.56-2.17c-11.12,3.32-31.92,5.56-55.73,5.56-23.32,0-43.73-2.14-55-5.35C24.62,124.61,41.85,134.54,81.81,132.14Z"/><path class="cls-9" d="M81.81,132.14c39.32-.39,49.08-6.37,54.84-8.61a30,30,0,0,0-5.56-2.17c-11.12,3.32-31.92,5.56-55.73,5.56-23.32,0-43.73-2.14-55-5.35C24.62,124.61,41.78,132.53,81.81,132.14Z"/><path class="cls-9" d="M81.81,169.25c39.32-.39,49.08-6.37,54.84-8.61a30,30,0,0,0-5.56-2.17C120,161.8,99.17,164,75.36,164c-23.32,0-43.73-2.14-55-5.35C24.62,161.72,41.78,169.65,81.81,169.25Z"/><path class="cls-10" d="M154.28,62.58a4.58,4.58,0,0,1-3.22-1.32v14.9a5.61,5.61,0,0,0,5.61,5.61h45.87a5.59,5.59,0,0,0,2.05-.39L155.78,62.58Z"/><path class="cls-11" d="M208.15,76.15V61.38a4.57,4.57,0,0,1-3.09,1.2H155.78l48.81,18.79A5.61,5.61,0,0,0,208.15,76.15Z"/><rect class="cls-8" x="157.48" y="69.37" width="5.75" height="5.75" rx="2.24" ry="2.24"/></g></g></svg>