<svg xmlns="http://www.w3.org/2000/svg" viewBox="0 0 151.39 128.96"><defs><style>.cls-1,.cls-5{fill:none;}.cls-1,.cls-7{stroke:#444;stroke-miterlimit:10;}.cls-1{stroke-width:3.94px;}.cls-2{fill:#b9b9b9;}.cls-3,.cls-6{fill:#444;}.cls-3{opacity:0.9;}.cls-4{fill:#ececec;}.cls-5{stroke:#0072c5;stroke-linecap:round;stroke-linejoin:round;stroke-width:4.72px;}.cls-7{fill:#eee;stroke-width:0.64px;}.cls-8{fill:#282828;opacity:0.5;}.cls-9{fill:#1a82c3;}.cls-10{fill:#0072c5;}</style></defs><title>Asset 157</title><g id="Layer_2" data-name="Layer 2"><g id="Layer_2-2" data-name="Layer 2"><path class="cls-1" d="M118.07,34.44V50a6.15,6.15,0,0,1-6.15,6.15H92.81"/><path class="cls-2" d="M98.78,103.67a1.54,1.54,0,0,0,0-.32c0-1.56-2.41-3-6.61-4.27h0c-8.54,2.55-24.51,4.27-42.8,4.27s-34.26-1.72-42.8-4.27h0C2.41,100.33,0,101.79,0,103.35v16.93H0s0,.1,0,.15C0,125.13,22.12,129,49.41,129s49.41-3.82,49.41-8.54a1.53,1.53,0,0,0,0-.32Z"/><path class="cls-3" d="M6.61,99.08C2.41,100.33,0,101.79,0,103.35c0,4.72,22.12,8.54,49.41,8.54s49.41-3.82,49.41-8.54c0-1.56-2.41-3-6.61-4.27-8.54,2.55-24.51,4.27-42.8,4.27S15.15,101.63,6.61,99.08Z"/><path class="cls-2" d="M49.41,100.55c18.29,0,34.26-1.72,42.8-4.27h0c4.2-1.26,6.61-2.71,6.61-4.27a1.53,1.53,0,0,0,0-.32V75.26a1.54,1.54,0,0,0,0-.32c0-1.56-2.41-3-6.61-4.27h0c-8.54,2.55-24.51,4.27-42.8,4.27s-34.26-1.72-42.8-4.27h0C2.41,71.92,0,73.38,0,74.94V91.86H0S0,92,0,92c0,1.56,2.41,3,6.61,4.27h0C15.15,98.83,31.12,100.55,49.41,100.55Z"/><path class="cls-4" d="M30.26,38.65l2.17-.15Z"/><path class="cls-4" d="M30.1,38.66C12.41,40,0,43,0,46.53H0C0,43,12.41,40,30.1,38.66Z"/><path class="cls-2" d="M49.41,72.14c18.29,0,34.26-1.72,42.8-4.27h0c4.2-1.26,6.61-2.71,6.61-4.27a1.53,1.53,0,0,0,0-.32V46.85c-1,4.57-22.71,8.22-49.37,8.22C22.12,55.06,0,51.24,0,46.53V63.45H0s0,.1,0,.15c0,1.56,2.41,3,6.61,4.27h0C15.15,70.42,31.12,72.14,49.41,72.14Z"/><path class="cls-4" d="M98.82,46.53a1.51,1.51,0,0,1,0,.17,1.3,1.3,0,0,0,0-.17C98.82,41.81,76.7,38,49.41,38h0C76.7,38,98.82,41.81,98.82,46.53Z"/><path class="cls-4" d="M35.94,38.31l2.26-.1Z"/><path class="cls-4" d="M33.63,38.43l2.2-.12Z"/><path class="cls-3" d="M49.41,55.06c26.67,0,48.4-3.65,49.37-8.22,0,0,0-.1,0-.15a1.51,1.51,0,0,0,0-.17C98.82,41.81,76.7,38,49.41,38h0c-3.86,0-7.61.08-11.21.22l-2.26.1h-.12l-2.2.12-1.21.07-2.17.15H30.1C12.41,40,0,43,0,46.53,0,51.24,22.12,55.06,49.41,55.06Z"/><line class="cls-5" x1="49.41" y1="9.78" x2="49.41" y2="32.25"/><line class="cls-5" x1="23.08" y1="16.66" x2="31.42" y2="33.34"/><line class="cls-5" x1="75.74" y1="16.66" x2="67.41" y2="33.34"/><rect class="cls-6" x="107.55" width="43.84" height="21.92" rx="10.96" ry="10.96"/><rect class="cls-7" x="112.48" y="12.4" width="4.42" height="4.42" rx="2.21" ry="2.21"/><path class="cls-3" d="M96.48,72.33c-4.42,1.72-16,5-42.12,6.61-30.69,1.84-43.92-5.78-47.2-8.12l-.55-.16C2.41,71.92,0,73.38,0,74.94c0,4.72,22.12,8.54,49.41,8.54s49.41-3.82,49.41-8.54C98.82,74,98,73.15,96.48,72.33Z"/><path class="cls-3" d="M54.36,78.95c26.1-1.57,37.69-4.89,42.12-6.61a23.07,23.07,0,0,0-4.27-1.67c-8.54,2.55-24.51,4.27-42.8,4.27-17.91,0-33.58-1.65-42.25-4.11C10.45,73.16,23.68,80.79,54.36,78.95Z"/><path class="cls-8" d="M54.36,78.95c30.19-.3,37.69-4.89,42.12-6.61a23.07,23.07,0,0,0-4.27-1.67c-8.54,2.55-24.51,4.27-42.8,4.27-17.91,0-33.58-1.65-42.25-4.11C10.45,73.16,23.62,79.25,54.36,78.95Z"/><path class="cls-8" d="M54.36,107.45c30.19-.3,37.69-4.89,42.12-6.61a23.07,23.07,0,0,0-4.27-1.67c-8.54,2.55-24.51,4.27-42.8,4.27-17.91,0-33.58-1.65-42.25-4.11C10.45,101.66,23.62,107.75,54.36,107.45Z"/><path class="cls-9" d="M110,25.53a3.52,3.52,0,0,1-2.48-1V36a4.31,4.31,0,0,0,4.31,4.31h35.22a4.29,4.29,0,0,0,1.57-.3L111.17,25.53Z"/><path class="cls-10" d="M151.39,36V24.6a3.51,3.51,0,0,1-2.37.92H111.17L148.66,40A4.31,4.31,0,0,0,151.39,36Z"/><rect class="cls-7" x="112.48" y="30.74" width="4.42" height="4.42" rx="2.21" ry="2.21"/></g></g></svg>