<svg xmlns="http://www.w3.org/2000/svg" viewBox="0 0 35 35.04"><defs><style>.cls-1{fill:#848484;}</style></defs><title>Asset 71</title><g id="Layer_2" data-name="Layer 2"><g id="Layer_2-2" data-name="Layer 2"><path class="cls-1" d="M17.48,0A16.94,16.94,0,0,1,24.3,1.38a17.7,17.7,0,0,1,9.32,9.32A17,17,0,0,1,35,17.52a17,17,0,0,1-1.38,6.82,17.7,17.7,0,0,1-9.32,9.32A16.94,16.94,0,0,1,17.48,35a17,17,0,0,1-6.82-1.38A17.81,17.81,0,0,1,5.1,29.9a17.53,17.53,0,0,1-3.74-5.56A17.16,17.16,0,0,1,0,17.52,17.16,17.16,0,0,1,1.36,10.7,17.53,17.53,0,0,1,5.1,5.14a17.8,17.8,0,0,1,5.56-3.76A16.94,16.94,0,0,1,17.48,0Zm0,1.92A15.24,15.24,0,0,0,11.4,3.14a15.61,15.61,0,0,0-8.3,8.3,15.24,15.24,0,0,0-1.22,6.08A15.24,15.24,0,0,0,3.1,23.6a15.61,15.61,0,0,0,8.3,8.3,15.24,15.24,0,0,0,6.08,1.22,15.24,15.24,0,0,0,6.08-1.22,15.61,15.61,0,0,0,8.3-8.3,15.24,15.24,0,0,0,1.22-6.08,15.24,15.24,0,0,0-1.22-6.08,15.61,15.61,0,0,0-8.3-8.3A15.24,15.24,0,0,0,17.48,1.92ZM22,20.4a3.31,3.31,0,0,0,2.52-3.32,4.1,4.1,0,0,0-.42-2,3.16,3.16,0,0,0-1.34-1.22,2.49,2.49,0,0,0-1-.28q-.6,0-1.28,0T19,13.62q-.76.06-1.52.06t-1.52-.06q-.76-.06-1.44-.08t-1.28,0a2.49,2.49,0,0,0-1,.28,3,3,0,0,0-1.32,1.22,4.28,4.28,0,0,0-.4,2A3.31,3.31,0,0,0,13,20.4l1,.24q.44.08,1.1.16a13,13,0,0,0,1.54.08h1.76a13.06,13.06,0,0,0,1.52-.08L21,20.64Q21.56,20.52,22,20.4Zm4.8-5.8A10.13,10.13,0,0,1,26.48,17a5.11,5.11,0,0,1-1,2.06,5.66,5.66,0,0,1-2.1,1.52,10.39,10.39,0,0,1-3.42.76l.82.4a2,2,0,0,1,.86.92A3.89,3.89,0,0,1,21.86,24q.06.84.06,1.72t0,1.62a2.66,2.66,0,0,0,.06.9,1.67,1.67,0,0,0,.46.56,4.84,4.84,0,0,0,.5.36q.2.12.12.3t-.56.22a2.85,2.85,0,0,1-.6-.08,2.16,2.16,0,0,1-.68-.28,1.94,1.94,0,0,1-.54-.5,1.29,1.29,0,0,1-.22-.78V24.72a1,1,0,0,0-.26-.8,1.34,1.34,0,0,0-.54-.32v4.32a2.74,2.74,0,0,0,.28,1.52,3,3,0,0,1,.22.34,1,1,0,0,1,.12.3q0,.12-.14.14a1.91,1.91,0,0,1-.6-.1,1.71,1.71,0,0,1-1.2-.92A3.36,3.36,0,0,1,18,27.68V23.44h-.88v4.24a3.52,3.52,0,0,1-.34,1.52,1.67,1.67,0,0,1-1.22.92,1.86,1.86,0,0,1-.58.1c-.09,0-.14-.06-.14-.14a.58.58,0,0,1,.12-.3l.24-.34a3.06,3.06,0,0,0,.18-.56,4,4,0,0,0,.1-1V23.6a1.2,1.2,0,0,0-.52.32,1.1,1.1,0,0,0-.24.8V28a1.29,1.29,0,0,1-.22.78,1.93,1.93,0,0,1-.54.5,2.15,2.15,0,0,1-.68.28,2.86,2.86,0,0,1-.6.08q-.48,0-.56-.22t.12-.3a4.83,4.83,0,0,0,.5-.36,1.67,1.67,0,0,0,.46-.56,3.74,3.74,0,0,0,.06-1.06q0-.86,0-1.9a3.13,3.13,0,0,1-.84.16,4.47,4.47,0,0,1-1.16-.08,3.34,3.34,0,0,1-1.64-.7A5.06,5.06,0,0,1,8.48,23a3.66,3.66,0,0,0-.62-.86,6.41,6.41,0,0,0-.6-.54,4.24,4.24,0,0,1-.4-.34q-.14-.14,0-.26a.73.73,0,0,1,.66-.24,1,1,0,0,1,.5.12,2.47,2.47,0,0,1,1,.84,6.55,6.55,0,0,0,1,1.08,3.91,3.91,0,0,0,.6.4,2.58,2.58,0,0,0,.8.28,2.9,2.9,0,0,0,1,0,2.5,2.5,0,0,0,1-.44,1.88,1.88,0,0,1,.38-.82,2.33,2.33,0,0,1,.56-.48,3.65,3.65,0,0,1,.56-.28l.42-.18a11.76,11.76,0,0,1-3.6-.74A6.11,6.11,0,0,1,9.46,19.1,4.8,4.8,0,0,1,8.34,17,9.71,9.71,0,0,1,8,14.6a6.54,6.54,0,0,1,.4-2.36A5.88,5.88,0,0,1,9.56,10.4a4.87,4.87,0,0,1-.22-2,7.24,7.24,0,0,1,.42-1.9,5.88,5.88,0,0,1,2.54.64A8.19,8.19,0,0,1,13.72,8a13.18,13.18,0,0,1,3.56-.48h.28a13.64,13.64,0,0,1,3.32.4,8.92,8.92,0,0,1,1.44-.88,6.06,6.06,0,0,1,2.48-.6,6.6,6.6,0,0,1,.42,1.8,5.41,5.41,0,0,1-.14,1.92,5.59,5.59,0,0,1,1.24,1.9A6.69,6.69,0,0,1,26.76,14.6Zm-9.36-.92h0Zm5.16,3.12a1.55,1.55,0,0,1-.3,1,.9.9,0,0,1-.74.4.85.85,0,0,1-.72-.4,1.79,1.79,0,0,1,0-1.92.85.85,0,0,1,.72-.4.9.9,0,0,1,.74.4A1.55,1.55,0,0,1,22.56,16.8Zm-7.84,0a1.55,1.55,0,0,1-.3,1,.9.9,0,0,1-.74.4.85.85,0,0,1-.72-.4,1.79,1.79,0,0,1,0-1.92.85.85,0,0,1,.72-.4.9.9,0,0,1,.74.4A1.55,1.55,0,0,1,14.72,16.8Z"/></g></g></svg>