<svg xmlns="http://www.w3.org/2000/svg" viewBox="0 0 35 35"><defs><style>.cls-1{fill:#848484;}</style></defs><title>Asset 68</title><g id="Layer_2" data-name="Layer 2"><g id="Layer_2-2" data-name="Layer 2"><path class="cls-1" d="M17.5,0A17.5,17.5,0,1,0,35,17.5,17.52,17.52,0,0,0,17.5,0Zm0,33A15.5,15.5,0,1,1,33,17.5,15.52,15.52,0,0,1,17.5,33Z"/><path class="cls-1" d="M12.49,13.47a1,1,0,0,0-1,1v8.28a1,1,0,1,0,2,0V14.47A1,1,0,0,0,12.49,13.47Z"/><path class="cls-1" d="M12.49,8.8a1,1,0,1,0,.71.29A1,1,0,0,0,12.49,8.8Z"/><path class="cls-1" d="M21.14,14.25a4.78,4.78,0,0,0-2.81.91v-.69a1,1,0,0,0-2,0v8.28a1,1,0,0,0,2,0V19.06a2.81,2.81,0,1,1,5.62,0V23a1,1,0,0,0,2,0V19.06A4.82,4.82,0,0,0,21.14,14.25Z"/></g></g></svg>