<svg xmlns="http://www.w3.org/2000/svg" viewBox="0 0 35 35"><defs><style>.cls-1{fill:#848484;}</style></defs><title>Asset 69</title><g id="Layer_2" data-name="Layer 2"><g id="Layer_2-2" data-name="Layer 2"><path class="cls-1" d="M17.5,0A17.5,17.5,0,1,0,35,17.5,17.52,17.52,0,0,0,17.5,0Zm0,33A15.5,15.5,0,1,1,33,17.5,15.52,15.52,0,0,1,17.5,33Z"/><path class="cls-1" d="M28.72,10.36a.57.57,0,0,0-.61-.08,8.59,8.59,0,0,1-.88.35,5,5,0,0,0,.7-1.33.57.57,0,0,0-.11-.58.55.55,0,0,0-.68-.11,8,8,0,0,1-2.59.93,5.53,5.53,0,0,0-9.25,3.61,19.26,19.26,0,0,1-2-.52A12.41,12.41,0,0,1,8,9.14.57.57,0,0,0,7.67,9a.55.55,0,0,0-.6.3,5.1,5.1,0,0,0,.43,5.26.55.55,0,0,0-.53.2.57.57,0,0,0-.12.34c0,.06,0,.11,0,.17a4.77,4.77,0,0,0,1.79,3.73.56.56,0,0,0-.18.21.57.57,0,0,0,0,.42,4.9,4.9,0,0,0,3.16,3.2A8.65,8.65,0,0,1,7.09,24H6.66a.55.55,0,0,0-.57.46.57.57,0,0,0,.28.58,13.27,13.27,0,0,0,14.49-.68.56.56,0,0,0,.07-.85h0a.56.56,0,0,0-.72-.05A12.13,12.13,0,0,1,8.77,25a9.74,9.74,0,0,0,4.54-2.1.57.57,0,0,0,.2-.54.55.55,0,0,0-.53-.45A3.79,3.79,0,0,1,9.79,20a5.29,5.29,0,0,0,.92-.13.57.57,0,0,0,.45-.47.55.55,0,0,0-.42-.61,3.67,3.67,0,0,1-2.74-3A5,5,0,0,0,9.3,16a.55.55,0,0,0,.53-.49.57.57,0,0,0-.28-.54,4,4,0,0,1-1.79-4.41,13.51,13.51,0,0,0,5.13,3.18,14.85,14.85,0,0,0,2.64.6h.27a.55.55,0,0,0,.58-.57s0-.06,0-.1A4.43,4.43,0,0,1,24,10.53a.55.55,0,0,0,.46.16,9.1,9.1,0,0,0,1.64-.39,4,4,0,0,1-1,.79.55.55,0,0,0-.24.71v0a.55.55,0,0,0,.56.32,9.76,9.76,0,0,0,1.35-.22A8.92,8.92,0,0,1,25.48,13a.55.55,0,0,0-.23.47v0s0,.08,0,.11v0a12.1,12.1,0,0,1-3.12,8.07.56.56,0,0,0,.83.74,13.16,13.16,0,0,0,3.39-8.74,10,10,0,0,0,2.48-2.67A.55.55,0,0,0,28.72,10.36Z"/></g></g></svg>