<svg xmlns="http://www.w3.org/2000/svg" viewBox="0 0 35.35 35.35"><defs><style>.cls-1{fill:#848484;}</style></defs><title>Asset 67</title><g id="Layer_2" data-name="Layer 2"><g id="Layer_2-2" data-name="Layer 2"><path class="cls-1" d="M17.67,0A17.67,17.67,0,1,0,35.35,17.67,17.69,17.69,0,0,0,17.67,0Zm0,33.33A15.65,15.65,0,1,1,33.33,17.67,15.67,15.67,0,0,1,17.67,33.33Z"/><path class="cls-1" d="M21.77,8.08h-2.4a3.56,3.56,0,0,0-3.56,3.56v2.7H13.58a1,1,0,0,0,0,2h2.23v9.36a1,1,0,0,0,2,0V16.36h3.45a1,1,0,1,0,0-2H17.84v-2.7a1.54,1.54,0,0,1,1.54-1.54h2.4a1,1,0,0,0,0-2Z"/></g></g></svg>