<svg xmlns="http://www.w3.org/2000/svg" viewBox="0 0 34.54 34.54"><defs><style>.cls-1{fill:#848484;}</style></defs><title>Asset 70</title><g id="Layer_2" data-name="Layer 2"><g id="Layer_2-2" data-name="Layer 2"><path class="cls-1" d="M17.27,0A17.27,17.27,0,1,0,34.54,17.27,17.29,17.29,0,0,0,17.27,0Zm0,32.57a15.3,15.3,0,1,1,15.3-15.3A15.31,15.31,0,0,1,17.27,32.57Z"/><path class="cls-1" d="M26.52,13.15A4.65,4.65,0,0,0,25.67,11a2.9,2.9,0,0,0-2-1h-.12c-2.48-.19-6.22-.19-6.26-.19h0s-3.78,0-6.26.19h-.12a2.9,2.9,0,0,0-2,1A4.66,4.66,0,0,0,8,13.15H8a30.76,30.76,0,0,0-.18,3.13v1.44A30.75,30.75,0,0,0,8,20.86H8A4.64,4.64,0,0,0,8.87,23a3.09,3.09,0,0,0,2,.95l.2,0h.05c1.43.15,5.9.19,6.1.19,0,0,3.78,0,6.26-.2h.13a2.91,2.91,0,0,0,2-1,4.65,4.65,0,0,0,.84-2.17h0a30.79,30.79,0,0,0,.18-3.13V16.29a30.77,30.77,0,0,0-.18-3.13Zm-.9,4.58c0,1.44-.16,2.91-.17,3a3.68,3.68,0,0,1-.57,1.58h0a1.85,1.85,0,0,1-1.32.61h-.11c-2.44.19-6.13.19-6.16.19s-4.56,0-6-.19l-.25,0a2.05,2.05,0,0,1-1.39-.6h0a3.59,3.59,0,0,1-.57-1.58c0-.09-.17-1.56-.17-3V16.29c0-1.44.16-2.91.17-3a3.69,3.69,0,0,1,.57-1.58h0A1.84,1.84,0,0,1,11,11.09h.11c2.44-.19,6.13-.19,6.17-.19h0s3.73,0,6.17.19h.11a1.84,1.84,0,0,1,1.32.61h0a3.6,3.6,0,0,1,.57,1.58c0,.09.17,1.56.17,3Z"/><path class="cls-1" d="M20.89,16.55l-5.56-3.33a.54.54,0,0,0-.82.46v6.67a.54.54,0,0,0,.82.46l5.56-3.33a.54.54,0,0,0,0-.93Zm-5.29,2.84V14.63l4,2.38Z"/></g></g></svg>