<svg xmlns="http://www.w3.org/2000/svg" viewBox="0 0 220.42 216.35"><defs><style>.cls-1{fill:none;stroke:#d13434;stroke-linecap:round;stroke-linejoin:round;stroke-width:0.15px;}.cls-2{fill:#d13434;}.cls-3{fill:#efefef;}.cls-4{opacity:0.8;}.cls-5{fill:#ba131a;}.cls-6{fill:#bababa;opacity:0.68;}.cls-7{fill:#bbf2ff;}.cls-8{fill:#444;}</style></defs><title>Asset 114</title><g id="Layer_2" data-name="Layer 2"><g id="Layer_4" data-name="Layer 4"><line class="cls-1" x1="9.37" y1="64.85" x2="1.9" y2="58.65"/><circle class="cls-2" cx="2.04" cy="58.77" r="1.43"/><line class="cls-1" x1="49.4" y1="30.67" x2="43.37" y2="23.05"/><circle class="cls-2" cx="43.48" cy="23.2" r="1.43" transform="translate(11.8 60.95) rotate(-78.08)"/><line class="cls-1" x1="205.38" y1="64.25" x2="212.86" y2="58.05"/><circle class="cls-2" cx="212.72" cy="58.17" r="1.43"/><line class="cls-1" x1="172.77" y1="24.93" x2="178.8" y2="17.32"/><circle class="cls-2" cx="178.68" cy="17.47" r="1.43" transform="translate(0.24 37.28) rotate(-11.92)"/><line class="cls-1" x1="113.71" y1="17.81" x2="113.55" y2="8.09"/><circle class="cls-2" cx="113.55" cy="8.28" r="1.43" transform="matrix(0.76, -0.65, 0.65, 0.76, 21.94, 75.89)"/><circle class="cls-3" cx="112.24" cy="108.18" r="108.18"/><g class="cls-4"><path class="cls-5" d="M214.34,36.25H209.5a5.89,5.89,0,0,0-5.78,4.84H183a11.16,11.16,0,0,0-11.15,11.15V65.89a5.93,5.93,0,0,1-5.92,5.92h-6.49c0-.16,0-.32,0-.48A5.88,5.88,0,0,0,153.52,66h-4.83a5.89,5.89,0,0,0-5.89,5.89V76.7a5.89,5.89,0,0,0,5.89,5.89h4.83A5.88,5.88,0,0,0,159.38,77h6.52a11.16,11.16,0,0,0,11.15-11.15V52.23A5.92,5.92,0,0,1,183,46.31h20.65V47a5.89,5.89,0,0,0,5.89,5.89h4.83A5.89,5.89,0,0,0,220.23,47V42.13A5.89,5.89,0,0,0,214.34,36.25ZM154.18,76.7a.66.66,0,0,1-.66.66h-4.83a.66.66,0,0,1-.65-.66V71.86a.66.66,0,0,1,.65-.66h4.83a.66.66,0,0,1,.66.66ZM215,47a.66.66,0,0,1-.66.66H209.5a.66.66,0,0,1-.65-.66V42.13a.66.66,0,0,1,.65-.66h4.83a.66.66,0,0,1,.66.66V47Z"/></g><path class="cls-6" d="M144.5,117.15h5.06V101.64L133,91.89,127,95.11a5.43,5.43,0,1,1-5.31-6.57,5.38,5.38,0,0,1,2.06.41l5.77-3.12-.11-16.51-31.9-18L84.84,58.49v58.65h4.8a5.44,5.44,0,1,1,.08,7H84.84v58.65L97.52,190l31.9-18,.11-16.48-5.6-3a5.43,5.43,0,1,1,3-6.27l6,3.23,16.62-9.75V124.11h-5.14a5.43,5.43,0,1,1,.08-7Zm-24.94,15.34-14.21,9.75v16.18l2,1.73h.29a5.43,5.43,0,1,1-5.4,4.8l-3.84-3.36v-23l14.21-9.75V112.43L98.4,102.68v-23l3.83-3.34q0-.23,0-.46a5.43,5.43,0,1,1,5.43,5.43l-.49,0-1.79,1.56V99l14.21,9.75Z"/><path class="cls-7" d="M140.3,119.33a1.25,1.25,0,1,0,1.13,1.79l.25-.52-.23-.52A1.26,1.26,0,0,0,140.3,119.33Z"/><path class="cls-7" d="M121.7,92.73A1.25,1.25,0,1,0,123,94l0-.67-.45-.35A1.24,1.24,0,0,0,121.7,92.73Z"/><path class="cls-7" d="M120.45,147.46a1.25,1.25,0,0,0,1.25,1.25,1.24,1.24,0,0,0,.81-.3L123,148v-.61a1.25,1.25,0,0,0-2.51,0Z"/><path class="cls-7" d="M93.85,121.83a1.25,1.25,0,1,0-1.15-1.76l-.23.52.25.52A1.25,1.25,0,0,0,93.85,121.83Z"/><path class="cls-6" d="M14.14,115.15a5.43,5.43,0,1,1-4.12,9H4.87v15.51l16.62,9.75,6-3.23a5.44,5.44,0,1,1,3,6.27l-5.6,3L25,171.93l31.9,18,12.68-7.21V124.11H64.71a5.43,5.43,0,1,1,.08-7h4.8V58.49L56.91,51.28,25,69.32,24.9,85.83,30.67,89a5.38,5.38,0,0,1,2.06-.41,5.43,5.43,0,1,1-5.31,6.57l-5.95-3.22-16.6,9.74v15.51H9.93A5.43,5.43,0,0,1,14.14,115.15Zm20.73-6.38L49.07,99V82.84l-1.79-1.56-.49,0a5.43,5.43,0,1,1,5.43-5.43q0,.23,0,.46L56,79.68v23l-14.21,9.75v16.39L56,138.57v23l-3.84,3.36a5.43,5.43,0,1,1-5.4-4.8h.29l2-1.73V142.24l-14.21-9.75Z"/><path class="cls-7" d="M14.14,119.33A1.25,1.25,0,1,1,13,121.12l-.25-.52.23-.52A1.26,1.26,0,0,1,14.14,119.33Z"/><path class="cls-7" d="M32.73,92.73A1.25,1.25,0,1,1,31.48,94l0-.67L32,93A1.24,1.24,0,0,1,32.73,92.73Z"/><path class="cls-7" d="M34,147.46a1.25,1.25,0,0,1-1.25,1.25,1.24,1.24,0,0,1-.81-.3l-.44-.38v-.61a1.25,1.25,0,0,1,2.51,0Z"/><path class="cls-7" d="M60.59,121.83a1.25,1.25,0,1,1,1.15-1.76l.23.52-.25.52A1.25,1.25,0,0,1,60.59,121.83Z"/><path class="cls-8" d="M103.27,81.89,106.55,79a3.35,3.35,0,1,0-2-1.93l-4,3.53v21l14.21,9.75v18.59l-14.21,9.75v21l4.1,3.58a3.35,3.35,0,1,0,2.12-1.85l-3.43-3V141.14l14.21-9.75V109.87l-14.21-9.75Z"/><path class="cls-8" d="M134.42,87.1l-.14-20.63L97.51,45.67,80,55.66V185.6l17.55,10,36.77-20.8.14-20.63,20-11.75V98.85ZM133,151.77l-7.94-4.3h0a3.35,3.35,0,1,0-1.18,2.54l7.76,4.2-.13,18.95-34,19.22L82.75,184V122h8.08a3.34,3.34,0,1,0,0-2.79h-8v-62l14.77-8.4,34,19.22.13,19-7.88,4.27A3.34,3.34,0,1,0,125,94c0-.06,0-.11,0-.17l8-4.31,18.64,10.94v18.79h-8.29a3.34,3.34,0,1,0,0,2.79h8.34v18.79Z"/><path class="cls-8" d="M51.16,81.89,47.89,79a3.35,3.35,0,1,1,2-1.93l4,3.53v21l-14.21,9.75v18.59l14.21,9.75v21l-4.1,3.58a3.35,3.35,0,1,1-2.12-1.85l3.43-3V141.14L37,131.39V109.87l14.21-9.75Z"/><path class="cls-8" d="M0,98.85v43.56l20,11.75.14,20.63,36.77,20.8,17.55-10V55.66l-17.55-10L20.15,66.47,20,87.1Zm2.79,42V122h8.34a3.34,3.34,0,1,0,0-2.79H2.79V100.44L21.43,89.5l8,4.31c0,.06,0,.11,0,.17a3.35,3.35,0,1,0,1.3-2.64L22.8,87.07l.13-19,34-19.22,14.77,8.4v62h-8a3.34,3.34,0,1,0,0,2.79h8.08v62l-14.77,8.4-34-19.22-.13-18.95,7.76-4.2a3.34,3.34,0,1,0-1.18-2.54h0l-7.94,4.3Z"/><circle class="cls-2" cx="107.61" cy="75.88" r="2.33"/><circle class="cls-2" cx="107.61" cy="165.59" r="2.33"/><circle class="cls-2" cx="121.7" cy="94.01" r="2.33"/><circle class="cls-2" cx="121.7" cy="147.41" r="2.33"/><circle class="cls-2" cx="140.33" cy="120.61" r="2.33"/><circle class="cls-2" cx="93.85" cy="120.61" r="2.33"/><circle class="cls-2" cx="46.86" cy="75.88" r="2.33"/><circle class="cls-2" cx="46.86" cy="165.59" r="2.33"/><circle class="cls-2" cx="32.77" cy="94.01" r="2.33"/><circle class="cls-2" cx="32.77" cy="147.41" r="2.33"/><circle class="cls-2" cx="14.14" cy="120.61" r="2.33"/><circle class="cls-2" cx="60.62" cy="120.61" r="2.33"/></g></g></svg>