<svg xmlns="http://www.w3.org/2000/svg" viewBox="0 0 177.07 23.46"><defs><style>.cls-1{fill:#ba131a;}.cls-2{fill:#58595b;}</style></defs><title>MAQ Logo</title><g id="Layer_2" data-name="Layer 2"><g id="Layer_1-2" data-name="Layer 1"><polygon class="cls-1" points="26.28 23.06 34.19 6.11 36.27 1.65 38.33 6.08 46.25 23.06 42.41 23.04 36.27 8.89 29.94 23.06 26.28 23.06 26.28 23.06"/><polygon class="cls-1" points="29.53 12.25 39.48 16.51 26.81 18.41 29.53 12.25 29.53 12.25"/><path class="cls-2" d="M71.71,21.88v-3a5.74,5.74,0,0,0,1.22.81,9.8,9.8,0,0,0,1.49.6,11.86,11.86,0,0,0,1.57.38,8.8,8.8,0,0,0,1.46.13A5.73,5.73,0,0,0,80.92,20a2.9,2.9,0,0,0,1.14-2.47A2.9,2.9,0,0,0,81.68,16a4.31,4.31,0,0,0-1.05-1.17,10.54,10.54,0,0,0-1.59-1l-2-1q-1.12-.57-2.09-1.15a9.1,9.1,0,0,1-1.69-1.28,5.37,5.37,0,0,1-1.13-1.59,4.92,4.92,0,0,1-.41-2.08,4.9,4.9,0,0,1,.64-2.55,5.49,5.49,0,0,1,1.69-1.78,7.62,7.62,0,0,1,2.38-1A10.88,10.88,0,0,1,79.18,1a10.44,10.44,0,0,1,4.61.76V4.57a8.36,8.36,0,0,0-4.87-1.31,8,8,0,0,0-1.64.17A4.63,4.63,0,0,0,75.82,4a3.24,3.24,0,0,0-1,1,2.66,2.66,0,0,0-.4,1.49,3.07,3.07,0,0,0,.31,1.42A3.47,3.47,0,0,0,75.58,9a8.93,8.93,0,0,0,1.46,1q.86.46,2,1t2.18,1.19A10,10,0,0,1,83,13.54a6.16,6.16,0,0,1,1.23,1.69,4.75,4.75,0,0,1,.46,2.12A5.38,5.38,0,0,1,84.06,20a5.08,5.08,0,0,1-1.67,1.78,7.29,7.29,0,0,1-2.43,1,13.24,13.24,0,0,1-2.9.31A11.84,11.84,0,0,1,75.82,23q-.75-.08-1.52-.24a12.15,12.15,0,0,1-1.47-.39,4.52,4.52,0,0,1-1.11-.51Z"/><path class="cls-2" d="M93.47,9.17a4.65,4.65,0,0,0-3.73,1.61,6.59,6.59,0,0,0-1.37,4.43,6.23,6.23,0,0,0,1.39,4.28A4.72,4.72,0,0,0,93.47,21a4.47,4.47,0,0,0,3.65-1.54,6.67,6.67,0,0,0,1.28-4.37,6.78,6.78,0,0,0-1.28-4.42,4.46,4.46,0,0,0-3.65-1.55Zm-.18,13.94A7.09,7.09,0,0,1,87.88,21a7.93,7.93,0,0,1-2-5.68,8.26,8.26,0,0,1,2.1-6,7.56,7.56,0,0,1,5.69-2.16A6.86,6.86,0,0,1,99,9.21,8.34,8.34,0,0,1,100.91,15a8.21,8.21,0,0,1-2.07,5.86,7.24,7.24,0,0,1-5.54,2.2Z"/><path class="cls-2" d="M109.89,2.48a3.26,3.26,0,0,0-1.63-.4q-2.57,0-2.57,3.24V7.67h3.58V9.76H105.7V23h-2.43V9.76h-2.61V7.67h2.61V5.19a5.15,5.15,0,0,1,1.39-3.8A4.69,4.69,0,0,1,108.12,0a4.8,4.8,0,0,1,1.78.27V2.48Z"/><path class="cls-2" d="M118.79,22.81a4.72,4.72,0,0,1-2.28.48q-4,0-4-4.48v-9h-2.63V7.67h2.63V3.94l2.45-.79V7.67h3.85V9.76h-3.85v8.61a3.56,3.56,0,0,0,.52,2.19,2.08,2.08,0,0,0,1.73.66,2.57,2.57,0,0,0,1.6-.51v2.09Z"/><path class="cls-2" d="M140.55,7.81,136,23.1h-2.54l-3.15-10.94a7,7,0,0,1-.24-1.42H130a6.67,6.67,0,0,1-.31,1.39l-3.42,11H123.8L119.17,7.81h2.57l3.16,11.49a7.08,7.08,0,0,1,.21,1.37h.12a6.5,6.5,0,0,1,.27-1.4L129,7.81h2.24l3.16,11.52a8.26,8.26,0,0,1,.22,1.37h.12a6.35,6.35,0,0,1,.25-1.37l3.1-11.52Z"/><path class="cls-1" d="M64.15,19.91A11.71,11.71,0,0,0,67,11.63a11.06,11.06,0,0,0-2.75-7.81A9.42,9.42,0,0,0,57,.84a10,10,0,0,0-7.7,3.07,11.67,11.67,0,0,0-2.84,8.24A11,11,0,0,0,49.2,20a9.63,9.63,0,0,0,7.41,3,9.78,9.78,0,0,0,7.54-3ZM61.53,6A9.08,9.08,0,0,1,63.25,12a8.66,8.66,0,0,1-1.78,5.81,6.05,6.05,0,0,1-4.85,2.07,5.77,5.77,0,0,1-4.69-2.18,8.76,8.76,0,0,1-1.79-5.75A8.68,8.68,0,0,1,52,6.15,6,6,0,0,1,56.77,4,5.83,5.83,0,0,1,61.53,6Z"/><path class="cls-1" d="M23,1.55H18.16s-6.26,15.58-6.63,16.7h-.07C11.33,17.72,5,1.55,5,1.55H0V23H3.28s0-17.16-.12-18h.06c.2,1,7,18,7,18h2.45s6.75-17.08,7-18h.06c-.14,1.64-.21,18-.21,18H23V1.55Z"/><path class="cls-2" d="M150.17,15.22l-3.69.51a6,6,0,0,0-2.57.84,2.44,2.44,0,0,0-.87,2.14,2.33,2.33,0,0,0,.8,1.83,3.08,3.08,0,0,0,2.13.71A3.93,3.93,0,0,0,149,20a4.56,4.56,0,0,0,1.19-3.23V15.22Zm2.45,7.87h-2.45V20.71h-.06a5.12,5.12,0,0,1-4.7,2.75,5,5,0,0,1-3.57-1.21A4.19,4.19,0,0,1,140.54,19q0-4.28,5-5l4.58-.64q0-3.9-3.15-3.9a7.52,7.52,0,0,0-5,1.88V8.89a9.47,9.47,0,0,1,5.19-1.43q5.39,0,5.39,5.7V23.1Z"/><path class="cls-2" d="M163.3,10.28a3,3,0,0,0-1.85-.49,3.12,3.12,0,0,0-2.62,1.48,6.84,6.84,0,0,0-1.05,4v7.79h-2.45V7.81h2.45V11h.06a5.35,5.35,0,0,1,1.6-2.52,3.64,3.64,0,0,1,2.4-.9,4,4,0,0,1,1.46.21v2.54Z"/><path class="cls-2" d="M174.56,13.85a5,5,0,0,0-1-3.3,3.48,3.48,0,0,0-2.8-1.18,4,4,0,0,0-2.94,1.24,5.62,5.62,0,0,0-1.49,3.24Zm2.51,1.94H166.28a5.71,5.71,0,0,0,1.37,3.94,4.73,4.73,0,0,0,3.61,1.39,7.51,7.51,0,0,0,4.75-1.7v2.3a8.87,8.87,0,0,1-5.33,1.46,6.46,6.46,0,0,1-5.09-2.08,8.52,8.52,0,0,1-1.85-5.86,8.36,8.36,0,0,1,2-5.81,6.49,6.49,0,0,1,5-2.25,5.75,5.75,0,0,1,4.64,1.94,8.09,8.09,0,0,1,1.64,5.39v1.28Z"/><polygon class="cls-2" points="108.31 7.67 121.74 7.67 122.08 9.76 107.73 9.76 108.31 7.67 108.31 7.67"/><polygon class="cls-1" points="65.61 23.06 61.63 23.06 56.14 16.07 60.17 16.07 65.61 23.06 65.61 23.06"/></g></g></svg>