<svg xmlns="http://www.w3.org/2000/svg" viewBox="0 0 231.68 216.35"><defs><style>.cls-1{fill:#efefef;}.cls-2{fill:#bababa;}.cls-3{fill:#ededed;}.cls-4,.cls-7{fill:#444;}.cls-4{opacity:0.9;}.cls-5{fill:#282828;opacity:0.5;}.cls-6{fill:#ba131a;opacity:0.8;}.cls-7{opacity:0.42;}</style></defs><title>Asset 115</title><g id="Layer_2" data-name="Layer 2"><g id="Layer_4" data-name="Layer 4"><circle class="cls-1" cx="108.18" cy="108.18" r="108.18"/><path class="cls-2" d="M84,198.65c27.57,0,51.64-2.59,64.52-6.44h0c6.34-1.89,10-4.09,10-6.43a2.31,2.31,0,0,0-.06-.48V160.52a2.32,2.32,0,0,0,.06-.48c0-2.34-3.63-4.54-10-6.43h0C135.65,157.45,111.58,160,84,160s-51.64-2.59-64.52-6.44h0c-6.34,1.89-10,4.09-10,6.43v25.52h0c0,.07,0,.15,0,.22,0,2.34,3.63,4.54,10,6.43h0C32.37,196.06,56.44,198.65,84,198.65Z"/><path class="cls-3" d="M55.14,105.35l3.26-.22Z"/><path class="cls-3" d="M54.9,105.37c-26.67,2-45.37,6.53-45.37,11.85h0C9.53,111.89,28.23,107.32,54.9,105.37Z"/><path class="cls-2" d="M84,155.82c27.57,0,51.64-2.59,64.52-6.44h0c6.34-1.89,10-4.09,10-6.43a2.31,2.31,0,0,0-.06-.48V117.7C157,124.58,124.21,130.09,84,130.09c-41.13,0-74.48-5.76-74.48-12.87v25.52h0c0,.07,0,.15,0,.22,0,2.34,3.63,4.54,10,6.43h0C32.37,153.23,56.44,155.82,84,155.82Z"/><path class="cls-3" d="M158.49,117.22a2.28,2.28,0,0,1,0,.26,2,2,0,0,0,0-.26c0-7.11-33.35-12.87-74.48-12.87h0C125.14,104.35,158.49,110.11,158.49,117.22Z"/><path class="cls-3" d="M63.7,104.83l3.41-.15Z"/><path class="cls-3" d="M60.22,105l3.31-.18Z"/><path class="cls-4" d="M84,130.09c40.2,0,73-5.5,74.42-12.39,0-.07,0-.15,0-.22a2.28,2.28,0,0,0,0-.26c0-7.11-33.35-12.87-74.48-12.87h0c-5.81,0-11.47.12-16.9.33l-3.41.15h-.17l-3.31.18-1.82.11-3.26.22-.24,0c-26.67,2-45.37,6.53-45.37,11.85C9.53,124.32,42.87,130.09,84,130.09Z"/><path class="cls-4" d="M155,156.12c-6.67,2.59-24.14,7.6-63.49,10-46.26,2.78-66.2-8.72-71.15-12.24l-.83-.24c-6.34,1.89-10,4.09-10,6.43,0,7.11,33.35,12.87,74.48,12.87s74.48-5.76,74.48-12.87C158.49,158.67,157.25,157.36,155,156.12Z"/><path class="cls-4" d="M91.47,166.09c39.34-2.36,56.82-7.37,63.49-10a34.77,34.77,0,0,0-6.44-2.51C135.65,157.45,111.58,160,84,160c-27,0-50.62-2.48-63.68-6.2C25.28,157.37,45.22,168.87,91.47,166.09Z"/><path class="cls-5" d="M91.47,166.09c45.51-.45,56.82-7.37,63.49-10a34.77,34.77,0,0,0-6.44-2.51C135.65,157.45,111.58,160,84,160c-27,0-50.62-2.48-63.68-6.2C25.28,157.37,45.14,166.54,91.47,166.09Z"/><rect class="cls-6" x="86.65" y="42.41" width="20.11" height="20.11" transform="translate(193.41 104.93) rotate(-180)"/><rect class="cls-6" x="32.49" y="42.41" width="20.11" height="20.11" transform="translate(85.08 104.93) rotate(-180)"/><rect class="cls-6" x="86.65" y="68.27" width="20.11" height="20.11" transform="translate(193.41 156.64) rotate(-180)"/><rect class="cls-6" x="59.57" y="68.27" width="20.11" height="20.11" transform="translate(139.25 156.64) rotate(-180)"/><rect class="cls-6" x="113.74" y="94.12" width="20.11" height="20.11" transform="translate(247.58 208.34) rotate(-180)"/><rect class="cls-6" x="86.65" y="94.12" width="20.11" height="20.11" transform="translate(193.41 208.34) rotate(-180)"/><rect class="cls-6" x="59.57" y="94.12" width="20.11" height="20.11" transform="translate(139.25 208.34) rotate(-180)"/><rect class="cls-6" x="32.49" y="94.12" width="20.11" height="20.11" transform="translate(85.08 208.34) rotate(-180)"/><path class="cls-7" d="M185.62,85.64c-10.93,0-21.86-.1-32.79,0-11.31.13-20.31-7.82-21.65-17.22a18.62,18.62,0,0,1,6.34-17.32,20.83,20.83,0,0,1,19.59-5c1.45.34,2.12.19,2.7-1.19a28.91,28.91,0,0,1,14.67-15,32.65,32.65,0,0,1,35.77,5.15A27.81,27.81,0,0,1,219,62.18c-.17.86-.11,1.16,1,1.25a12.39,12.39,0,0,1,9,4.25c3.07,3.73,3.56,7.81,1.31,11.93a11.24,11.24,0,0,1-10.47,6C208.42,85.66,197,85.64,185.62,85.64Z"/></g></g></svg>