<svg xmlns="http://www.w3.org/2000/svg" xmlns:xlink="http://www.w3.org/1999/xlink" viewBox="0 0 169.83 154.65"><defs><style>.cls-1{fill:#fff;}.cls-10,.cls-2{fill:#adadad;}.cls-3{fill:#444;}.cls-19,.cls-3{opacity:0.9;}.cls-4{clip-path:url(#clip-path);}.cls-5{opacity:0.2;}.cls-6,.cls-8{isolation:isolate;}.cls-7{clip-path:url(#clip-path-2);}.cls-10,.cls-8{opacity:0.9;}.cls-9{clip-path:url(#clip-path-3);}.cls-11{clip-path:url(#clip-path-4);}.cls-12{clip-path:url(#clip-path-5);}.cls-13{clip-path:url(#clip-path-6);}.cls-14{clip-path:url(#clip-path-7);}.cls-15{clip-path:url(#clip-path-8);}.cls-16{clip-path:url(#clip-path-9);}.cls-17{fill:#fdfdfd;}.cls-18{fill:#fcfcfc;}.cls-19,.cls-21{fill:#0072c5;}.cls-20{fill:#eee;}</style><clipPath id="clip-path"><path class="cls-1" d="M63.46,114.47q-27.49,0-55,0c-.63,0-.79-.14-.79-.78q0-34.31,0-68.62c0-.66.18-.78.8-.78q55.05,0,110.11,0c.63,0,.79.13.79.78q0,34.31,0,68.62c0,.65-.17.78-.8.78Q91,114.46,63.46,114.47Z"/></clipPath><clipPath id="clip-path-2"><path class="cls-2" d="M122.34,127,41.11,77.37a1.37,1.37,0,0,0,.68.2L123,127.16A1.37,1.37,0,0,1,122.34,127Z"/></clipPath><clipPath id="clip-path-3"><path class="cls-2" d="M43.83,81.78l81.22,49.6a3.1,3.1,0,0,1,1.52,2.59c0,2.52,0,5-.06,7.55a3.15,3.15,0,0,1-3.32,3h-.08a3.07,3.07,0,0,1-1.53-.45L40.36,94.49a3.07,3.07,0,0,0,1.53.45H42a3.15,3.15,0,0,0,3.32-3c.06-2.52.08-5,.06-7.55A3.1,3.1,0,0,0,43.83,81.78Z"/></clipPath><clipPath id="clip-path-4"><path class="cls-2" d="M84.78,68.19,166,117.79a4,4,0,0,0-.93-.4L143.85,111l-15.57-4.72a4.14,4.14,0,0,0-1.18-.2,2.5,2.5,0,0,0-1.62.56,2.37,2.37,0,0,0-1,1.75c0,.31,0,.62,0,.94q-.07,7.95-.13,15.89a6.16,6.16,0,0,1-.05.88,1.3,1.3,0,0,1-1.29,1.11L41.79,77.56a1.3,1.3,0,0,0,1.29-1.11,6.16,6.16,0,0,0,.05-.88q.06-7.94.13-15.89c0-.31,0-.62,0-.94a2.37,2.37,0,0,1,1-1.75,2.5,2.5,0,0,1,1.62-.56,4.14,4.14,0,0,1,1.18.2l15.57,4.72,21.22,6.43A4,4,0,0,1,84.78,68.19Z"/></clipPath><clipPath id="clip-path-5"><path class="cls-2" d="M53.16,78.73l81.22,49.6a3.14,3.14,0,0,1,1.48,2.76q0,3.34-.05,6.68t-.05,6.68a3.14,3.14,0,0,1-3.21,3.2,3.37,3.37,0,0,1-1.75-.48L49.56,97.56a3.37,3.37,0,0,0,1.75.48,3.14,3.14,0,0,0,3.21-3.2q0-3.34.05-6.68t.05-6.68A3.14,3.14,0,0,0,53.16,78.73Z"/></clipPath><clipPath id="clip-path-6"><path class="cls-2" d="M71.71,71.81l81.22,49.6a3.26,3.26,0,0,1,1.53,2.62L73.24,74.43A3.26,3.26,0,0,0,71.71,71.81Z"/></clipPath><clipPath id="clip-path-7"><path class="cls-2" d="M62.44,75.24l81.22,49.6a3,3,0,0,1,1.45,2.38c.09,1.6,0,3.2,0,4.81,0,2,0,3.91,0,5.86,0,3.32,0,6.65-.08,10a3.24,3.24,0,0,1-2.09,3.29,3.3,3.3,0,0,1-1.2.22,3.18,3.18,0,0,1-1.65-.47L58.86,101.3a3.18,3.18,0,0,0,1.65.47,3.3,3.3,0,0,0,1.2-.22,3.24,3.24,0,0,0,2.09-3.29c0-3.32.06-6.65.08-10,0-2,0-3.91,0-5.86,0-1.6.07-3.21,0-4.81A3,3,0,0,0,62.44,75.24Z"/></clipPath><clipPath id="clip-path-8"><path class="cls-2" d="M149.31,154.18l-81.22-49.6a3.22,3.22,0,0,0,1.66.47,3.15,3.15,0,0,0,.77-.09A3.23,3.23,0,0,0,73,101.64q.11-13.43.21-26.85c0-.12,0-.24,0-.35L154.47,124c0,.12,0,.23,0,.35q-.1,13.42-.21,26.85a3.23,3.23,0,0,1-2.52,3.33,3.15,3.15,0,0,1-.77.09A3.22,3.22,0,0,1,149.31,154.18Z"/></clipPath><clipPath id="clip-path-9"><path class="cls-2" d="M86.05,65.91l81.22,49.6a5.34,5.34,0,0,1,2.55,4.78c-.11,4.08-.08,8.17-.12,12.26s-.06,8.29-.1,12.43a5.22,5.22,0,0,1-5.26,5.22,5.53,5.53,0,0,1-1.47-.21c-1.38-.38-2.74-.85-4.1-1.31a1.73,1.73,0,0,1-.36-.16L77.21,98.92a1.73,1.73,0,0,0,.36.16c1.36.45,2.72.92,4.1,1.31a5.53,5.53,0,0,0,1.47.21,5.22,5.22,0,0,0,5.26-5.22q.05-6.22.1-12.43c0-4.09,0-8.17.12-12.26A5.34,5.34,0,0,0,86.05,65.91Z"/></clipPath></defs><title>Asset 155</title><g id="Layer_2" data-name="Layer 2"><g id="Layer_2-2" data-name="Layer 2"><path class="cls-3" d="M0,117.92v-77a4.4,4.4,0,0,1,2.66-3.48,8.86,8.86,0,0,1,1.58-.36H122.82a5.38,5.38,0,0,1,2.41.78,4.27,4.27,0,0,1,1.89,3.59c0,.13,0,.26,0,.4q0,37.61,0,75.23a4.52,4.52,0,0,1-2.42,4.22,5.11,5.11,0,0,1-2.29.54H5a5.09,5.09,0,0,1-4.35-2.06A4.84,4.84,0,0,1,0,117.92Z"/><path class="cls-1" d="M63.46,114.47q-27.49,0-55,0c-.63,0-.79-.14-.79-.78q0-34.31,0-68.62c0-.66.18-.78.8-.78q55.05,0,110.11,0c.63,0,.79.13.79.78q0,34.31,0,68.62c0,.65-.17.78-.8.78Q91,114.46,63.46,114.47Z"/><g class="cls-4"><g class="cls-5"><g class="cls-6"><g class="cls-6"><path class="cls-2" d="M122.34,127,41.11,77.37a1.37,1.37,0,0,0,.68.2L123,127.16A1.37,1.37,0,0,1,122.34,127Z"/><g class="cls-7"><g class="cls-8"><path class="cls-2" d="M41.79,77.56,123,127.16a1.37,1.37,0,0,1-.68-.2L41.11,77.37a1.37,1.37,0,0,0,.68.2"/></g></g></g><g class="cls-6"><path class="cls-2" d="M43.83,81.78l81.22,49.6a3.1,3.1,0,0,1,1.52,2.59c0,2.52,0,5-.06,7.55a3.15,3.15,0,0,1-3.32,3h-.08a3.07,3.07,0,0,1-1.53-.45L40.36,94.49a3.07,3.07,0,0,0,1.53.45H42a3.15,3.15,0,0,0,3.32-3c.06-2.52.08-5,.06-7.55A3.1,3.1,0,0,0,43.83,81.78Z"/><g class="cls-9"><g class="cls-8"><path class="cls-2" d="M43.83,81.78l81.22,49.6.2.13L44,81.92l-.2-.13"/><path class="cls-2" d="M44,81.92l81.22,49.6.2.15L44.23,82.07l-.2-.15"/><path class="cls-2" d="M44.23,82.07l81.22,49.6.19.17L44.42,82.25l-.19-.17"/><path class="cls-2" d="M44.42,82.25l81.22,49.6.19.2L44.61,82.45l-.19-.2"/><path class="cls-2" d="M44.61,82.45,125.84,132l.19.24L44.8,82.68l-.19-.24"/><path class="cls-2" d="M44.8,82.68,126,132.28a3.13,3.13,0,0,1,.19.29L45,83a3.13,3.13,0,0,0-.19-.29"/><path class="cls-2" d="M45,83l81.22,49.6a3,3,0,0,1,.21.47L45.19,83.45A3,3,0,0,0,45,83"/><path class="cls-2" d="M45.19,83.45,126.42,133a2.88,2.88,0,0,1,.16.83L45.35,84.28a2.88,2.88,0,0,0-.16-.83"/><path class="cls-2" d="M45.35,84.28l81.22,49.6s0,.06,0,.1c0,2.52,0,5-.06,7.55a3.12,3.12,0,0,1,0,.34L45.27,92.27a3.12,3.12,0,0,0,0-.34c.06-2.52.08-5,.06-7.55t0-.1"/><path class="cls-2" d="M45.27,92.27l81.22,49.6a3,3,0,0,1-.06.33L45.21,92.6a3,3,0,0,0,.06-.33"/><path class="cls-2" d="M45.21,92.6l81.22,49.6q0,.14-.08.27L45.13,92.87q0-.13.08-.27"/><path class="cls-2" d="M45.13,92.87l81.22,49.6-.09.23L45,93.1l.09-.23"/><path class="cls-2" d="M45,93.1l81.22,49.6-.1.21L44.93,93.3l.1-.21"/><path class="cls-2" d="M44.93,93.3l81.22,49.6-.12.19L44.82,93.49l.12-.19"/><path class="cls-2" d="M44.82,93.49,126,143.09l-.13.18L44.69,93.68l.13-.18"/><path class="cls-2" d="M44.69,93.68l81.22,49.6-.15.18L44.54,93.85l.15-.18"/><path class="cls-2" d="M44.54,93.85l81.22,49.6-.17.17L44.37,94l.17-.17"/><path class="cls-2" d="M44.37,94l81.22,49.6-.2.17L44.17,94.2l.2-.17"/><path class="cls-2" d="M44.17,94.2l81.22,49.6-.25.18L43.93,94.38l.25-.18"/><path class="cls-2" d="M43.93,94.38,125.15,144l-.35.2L43.58,94.58l.35-.2"/><path class="cls-2" d="M43.58,94.58l81.22,49.6a3.58,3.58,0,0,1-1.61.36h-.08a3.07,3.07,0,0,1-1.53-.45L40.36,94.49a3.07,3.07,0,0,0,1.53.45H42a3.58,3.58,0,0,0,1.61-.36"/></g></g></g><path class="cls-10" d="M42.19,81.31a3.19,3.19,0,0,1,3.16,3.06c0,2.52,0,5-.06,7.55a3.15,3.15,0,0,1-3.32,3H41.9a3.12,3.12,0,0,1-3-3.11c0-1.23,0-2.46,0-3.69s0-2.46,0-3.69a3.2,3.2,0,0,1,3.18-3.13Z"/><g class="cls-6"><path class="cls-2" d="M84.78,68.19,166,117.79a4,4,0,0,0-.93-.4L143.85,111l-15.57-4.72a4.14,4.14,0,0,0-1.18-.2,2.5,2.5,0,0,0-1.62.56,2.37,2.37,0,0,0-1,1.75c0,.31,0,.62,0,.94q-.07,7.95-.13,15.89a6.16,6.16,0,0,1-.05.88,1.3,1.3,0,0,1-1.29,1.11L41.79,77.56a1.3,1.3,0,0,0,1.29-1.11,6.16,6.16,0,0,0,.05-.88q.06-7.94.13-15.89c0-.31,0-.62,0-.94a2.37,2.37,0,0,1,1-1.75,2.5,2.5,0,0,1,1.62-.56,4.14,4.14,0,0,1,1.18.2l15.57,4.72,21.22,6.43A4,4,0,0,1,84.78,68.19Z"/><g class="cls-11"><g class="cls-8"><path class="cls-2" d="M84.78,68.19,166,117.79a4,4,0,0,0-.93-.4L143.85,111l-15.57-4.72a4.14,4.14,0,0,0-1.18-.2,2.51,2.51,0,0,0-1.15.26L44.72,56.7a2.51,2.51,0,0,1,1.15-.26,4.14,4.14,0,0,1,1.18.2l15.57,4.72,21.22,6.43a4,4,0,0,1,.93.4"/><path class="cls-2" d="M44.72,56.7l81.22,49.6-.27.15L44.46,56.85l.27-.15"/><path class="cls-2" d="M44.46,56.85l81.22,49.6-.21.15h0L44.23,57h0l.21-.15"/><path class="cls-2" d="M44.23,57l81.22,49.6-.19.17L44,57.18l.19-.17"/><path class="cls-2" d="M44,57.18l81.22,49.6-.15.16L43.89,57.34l.15-.16"/><path class="cls-2" d="M43.89,57.34l81.22,49.6-.12.15L43.77,57.49l.12-.15"/><path class="cls-2" d="M43.77,57.49,125,107.09l-.1.15L43.66,57.64l.1-.15"/><path class="cls-2" d="M43.66,57.64l81.22,49.6-.09.15L43.57,57.79l.09-.15"/><path class="cls-2" d="M43.57,57.79l81.22,49.6-.08.16L43.49,57.94l.08-.16"/><path class="cls-2" d="M43.49,57.94l81.22,49.6-.07.17L43.42,58.12l.07-.17"/><path class="cls-2" d="M43.42,58.12l81.22,49.6q0,.1-.06.2L43.36,58.32q0-.1.06-.2"/><path class="cls-2" d="M43.36,58.32l81.22,49.6a2.37,2.37,0,0,0,0,.26L43.31,58.58a2.37,2.37,0,0,1,0-.26"/><path class="cls-2" d="M43.31,58.58l81.22,49.6q0,.08,0,.17c0,.31,0,.62,0,.94q-.07,7.95-.13,15.89a6.55,6.55,0,0,1,0,.82L43.09,76.4a6.55,6.55,0,0,0,0-.82q.06-7.94.13-15.89c0-.31,0-.62,0-.94q0-.09,0-.17"/><path class="cls-2" d="M43.09,76.4,124.31,126v.06s0,.08,0,.12L43.06,76.58s0-.08,0-.12V76.4"/><path class="cls-2" d="M43.06,76.58l81.22,49.6,0,.12L43,76.7l0-.12"/><path class="cls-2" d="M43,76.7l81.22,49.6,0,.1L43,76.8l0-.1"/><path class="cls-2" d="M43,76.8l81.22,49.6,0,.09L42.94,76.89l0-.09"/><path class="cls-2" d="M42.94,76.89l81.22,49.6-.05.08L42.89,77l.05-.08"/><path class="cls-2" d="M42.89,77l81.22,49.6-.06.08L42.83,77.05l.06-.08"/><path class="cls-2" d="M42.83,77.05l81.22,49.6-.06.08L42.77,77.13l.06-.08"/><path class="cls-2" d="M42.77,77.13,124,126.73l-.07.07L42.7,77.2l.07-.07"/><path class="cls-2" d="M42.7,77.2l81.22,49.6-.08.07L42.61,77.28l.08-.07"/><path class="cls-2" d="M42.61,77.28l81.22,49.6-.1.07L42.51,77.35l.1-.07"/><path class="cls-2" d="M42.51,77.35l81.22,49.6-.14.08L42.37,77.43l.14-.08"/><path class="cls-2" d="M42.37,77.43,123.6,127a1.29,1.29,0,0,1-.58.13L41.79,77.56a1.29,1.29,0,0,0,.58-.13"/></g></g></g><path class="cls-10" d="M51.46,78.26a3.12,3.12,0,0,1,3.18,3.23q0,3.34-.05,6.68t-.05,6.68a3.22,3.22,0,0,1-6.45,0q0-6.68.1-13.36A3.17,3.17,0,0,1,51.46,78.26Z"/><g class="cls-6"><path class="cls-2" d="M53.16,78.73l81.22,49.6a3.14,3.14,0,0,1,1.48,2.76q0,3.34-.05,6.68t-.05,6.68a3.14,3.14,0,0,1-3.21,3.2,3.37,3.37,0,0,1-1.75-.48L49.56,97.56a3.37,3.37,0,0,0,1.75.48,3.14,3.14,0,0,0,3.21-3.2q0-3.34.05-6.68t.05-6.68A3.14,3.14,0,0,0,53.16,78.73Z"/><g class="cls-12"><g class="cls-8"><path class="cls-2" d="M53.16,78.73l81.22,49.6.18.12L53.34,78.85l-.18-.12"/><path class="cls-2" d="M53.34,78.85l81.22,49.6.18.14L53.52,79l-.18-.14"/><path class="cls-2" d="M53.52,79l81.22,49.6.18.16L53.7,79.15,53.52,79"/><path class="cls-2" d="M53.7,79.15l81.22,49.6.17.18L53.87,79.33l-.17-.18"/><path class="cls-2" d="M53.87,79.33l81.22,49.6.17.22L54,79.55l-.17-.22"/><path class="cls-2" d="M54,79.55l81.22,49.6a3.06,3.06,0,0,1,.19.29L54.23,79.85a3.06,3.06,0,0,0-.19-.29"/><path class="cls-2" d="M54.23,79.85l81.22,49.6a3.14,3.14,0,0,1,.22.49L54.45,80.34a3.14,3.14,0,0,0-.22-.49"/><path class="cls-2" d="M54.45,80.34l81.22,49.6a3.39,3.39,0,0,1,.18,1L54.63,81.31a3.39,3.39,0,0,0-.18-1"/><path class="cls-2" d="M54.63,81.31l81.22,49.6q0,.08,0,.17,0,3.34-.05,6.68t-.05,6.68a3.59,3.59,0,0,1,0,.44L54.5,95.28a3.59,3.59,0,0,0,0-.44q0-3.34.05-6.68t.05-6.68,0-.17"/><path class="cls-2" d="M54.5,95.28l81.22,49.6a3.41,3.41,0,0,1-.07.38L54.43,95.66a3.41,3.41,0,0,0,.07-.38"/><path class="cls-2" d="M54.43,95.66l81.22,49.6q0,.15-.09.29L54.34,96q.05-.14.09-.29"/><path class="cls-2" d="M54.34,96l81.22,49.6q0,.13-.1.25L54.24,96.2q.05-.12.1-.25"/><path class="cls-2" d="M54.24,96.2l81.22,49.6-.11.22L54.13,96.43l.11-.22"/><path class="cls-2" d="M54.13,96.43,135.35,146l-.12.2L54,96.63l.12-.2"/><path class="cls-2" d="M54,96.63l81.22,49.6-.13.19L53.87,96.82l.13-.19"/><path class="cls-2" d="M53.87,96.82l81.22,49.6-.15.18L53.72,97l.15-.18"/><path class="cls-2" d="M53.72,97l81.22,49.6-.17.17L53.55,97.18l.17-.17"/><path class="cls-2" d="M53.55,97.18l81.22,49.6-.2.17L53.36,97.35l.2-.17"/><path class="cls-2" d="M53.36,97.35l81.22,49.6-.24.17L53.12,97.52l.24-.17"/><path class="cls-2" d="M53.12,97.52l81.22,49.6-.32.18L52.8,97.7l.32-.18"/><path class="cls-2" d="M52.8,97.7,134,147.3a3.31,3.31,0,0,1-1.48.34,3.37,3.37,0,0,1-1.75-.48L49.56,97.56a3.37,3.37,0,0,0,1.75.48,3.31,3.31,0,0,0,1.48-.34"/></g></g></g><g class="cls-6"><path class="cls-2" d="M71.71,71.81l81.22,49.6a3.26,3.26,0,0,1,1.53,2.62L73.24,74.43A3.26,3.26,0,0,0,71.71,71.81Z"/><g class="cls-13"><g class="cls-8"><path class="cls-2" d="M71.71,71.81l81.22,49.6.19.12L71.9,71.93l-.19-.12"/><path class="cls-2" d="M71.9,71.93l81.22,49.6.19.15L72.09,72.08l-.19-.15"/><path class="cls-2" d="M72.09,72.08l81.22,49.6.18.17L72.27,72.25l-.18-.17"/><path class="cls-2" d="M72.27,72.25l81.22,49.6.18.19L72.45,72.44l-.18-.19"/><path class="cls-2" d="M72.45,72.44,153.68,122l.18.23L72.64,72.68l-.18-.23"/><path class="cls-2" d="M72.64,72.68l81.22,49.6a3.25,3.25,0,0,1,.19.31L72.83,73a3.25,3.25,0,0,0-.19-.31"/><path class="cls-2" d="M72.83,73l81.22,49.6a3.31,3.31,0,0,1,.23.52L73.06,73.5a3.31,3.31,0,0,0-.23-.52"/><path class="cls-2" d="M73.06,73.5l81.22,49.6a3.42,3.42,0,0,1,.18.93L73.24,74.43a3.42,3.42,0,0,0-.18-.93"/></g></g></g><path class="cls-10" d="M60.76,74.76a3.1,3.1,0,0,1,3.13,2.85c.09,1.6,0,3.2,0,4.81,0,2,0,3.91,0,5.86,0,3.32,0,6.65-.08,10a3.24,3.24,0,0,1-2.09,3.29,3.3,3.3,0,0,1-1.2.22,3.23,3.23,0,0,1-3.2-3.27c0-2.21,0-4.42,0-6.63q.05-6.86.11-13.72a3.3,3.3,0,0,1,3.3-3.39Z"/><g class="cls-6"><path class="cls-2" d="M62.44,75.24l81.22,49.6a3,3,0,0,1,1.45,2.38c.09,1.6,0,3.2,0,4.81,0,2,0,3.91,0,5.86,0,3.32,0,6.65-.08,10a3.24,3.24,0,0,1-2.09,3.29,3.3,3.3,0,0,1-1.2.22,3.18,3.18,0,0,1-1.65-.47L58.86,101.3a3.18,3.18,0,0,0,1.65.47,3.3,3.3,0,0,0,1.2-.22,3.24,3.24,0,0,0,2.09-3.29c0-3.32.06-6.65.08-10,0-2,0-3.91,0-5.86,0-1.6.07-3.21,0-4.81A3,3,0,0,0,62.44,75.24Z"/><g class="cls-14"><g class="cls-8"><path class="cls-2" d="M62.44,75.24l81.22,49.6.19.13L62.63,75.36l-.19-.13"/><path class="cls-2" d="M62.63,75.36,143.86,125l.19.15L62.83,75.51l-.19-.15"/><path class="cls-2" d="M62.83,75.51,144,125.11l.18.17L63,75.68l-.18-.17"/><path class="cls-2" d="M63,75.68l81.22,49.6.18.19L63.18,75.86,63,75.68"/><path class="cls-2" d="M63.18,75.86l81.22,49.6.17.22L63.36,76.08l-.17-.22"/><path class="cls-2" d="M63.36,76.08l81.22,49.6a3,3,0,0,1,.18.28L63.54,76.37a3,3,0,0,0-.18-.28"/><path class="cls-2" d="M63.54,76.37,144.76,126a2.89,2.89,0,0,1,.2.45L63.74,76.82a2.89,2.89,0,0,0-.2-.45"/><path class="cls-2" d="M63.74,76.82,145,126.42a2.9,2.9,0,0,1,.15.79q0,.27,0,.54L63.92,78.16q0-.27,0-.54a2.9,2.9,0,0,0-.15-.79"/><path class="cls-2" d="M63.92,78.16l81.22,49.6c.05,1.42,0,2.84,0,4.26,0,2,0,3.91,0,5.86,0,3.32,0,6.65-.08,10a5.21,5.21,0,0,1,0,.62L63.75,98.88a5.21,5.21,0,0,0,0-.62c0-3.32.06-6.65.08-10,0-2,0-3.91,0-5.86,0-1.42.05-2.85,0-4.26"/><path class="cls-2" d="M63.75,98.88,145,148.48a4.25,4.25,0,0,1-.09.47L63.66,99.34a4.25,4.25,0,0,0,.09-.47"/><path class="cls-2" d="M63.66,99.34l81.22,49.6q0,.17-.1.33L63.56,99.67q.06-.16.1-.33"/><path class="cls-2" d="M63.56,99.67l81.22,49.6q0,.13-.1.26L63.46,99.94q.06-.13.1-.26"/><path class="cls-2" d="M63.46,99.94l81.22,49.6-.11.22-81.22-49.6.11-.22"/><path class="cls-2" d="M63.35,100.16l81.22,49.6-.12.19-81.22-49.6.12-.19"/><path class="cls-2" d="M63.23,100.35,144.45,150l-.13.18L63.1,100.53l.13-.18"/><path class="cls-2" d="M63.1,100.53l81.22,49.6-.14.17L63,100.7l.14-.17"/><path class="cls-2" d="M63,100.7l81.22,49.6-.16.16L62.8,100.86l.16-.16"/><path class="cls-2" d="M62.8,100.86,144,150.46l-.19.16L62.62,101l.19-.16"/><path class="cls-2" d="M62.62,101l81.22,49.6-.24.17L62.38,101.2l.24-.17"/><path class="cls-2" d="M62.38,101.2l81.22,49.6-.34.2L62,101.4l.34-.2"/><path class="cls-2" d="M62,101.4,143.26,151l-.33.14a3.3,3.3,0,0,1-1.2.22,3.18,3.18,0,0,1-1.65-.47L58.86,101.3a3.18,3.18,0,0,0,1.65.47,3.3,3.3,0,0,0,1.2-.22l.33-.14"/></g></g></g><g class="cls-6"><path class="cls-2" d="M149.31,154.18l-81.22-49.6a3.22,3.22,0,0,0,1.66.47,3.15,3.15,0,0,0,.77-.09A3.23,3.23,0,0,0,73,101.64q.11-13.43.21-26.85c0-.12,0-.24,0-.35L154.47,124c0,.12,0,.23,0,.35q-.1,13.42-.21,26.85a3.23,3.23,0,0,1-2.52,3.33,3.15,3.15,0,0,1-.77.09A3.22,3.22,0,0,1,149.31,154.18Z"/><g class="cls-15"><g class="cls-8"><path class="cls-2" d="M73.24,74.43,154.47,124s0,.05,0,.08L73.25,74.51s0-.05,0-.08"/><path class="cls-2" d="M73.25,74.51l81.22,49.6c0,.09,0,.18,0,.28q-.1,13.42-.21,26.85a4.42,4.42,0,0,1,0,.54L73,102.18a4.42,4.42,0,0,0,0-.54q.11-13.43.21-26.85c0-.09,0-.18,0-.28"/><path class="cls-2" d="M73,102.18l81.22,49.6a3.91,3.91,0,0,1-.08.43l-81.22-49.6a3.91,3.91,0,0,0,.08-.43"/><path class="cls-2" d="M72.92,102.61l81.22,49.6q0,.16-.09.32l-81.22-49.6q.05-.15.09-.32"/><path class="cls-2" d="M72.82,102.93,154,152.52q0,.13-.1.26l-81.22-49.6q.06-.13.1-.26"/><path class="cls-2" d="M72.72,103.19l81.22,49.6-.11.23-81.22-49.6.11-.23"/><path class="cls-2" d="M72.61,103.41,153.83,153l-.12.2-81.22-49.6.12-.2"/><path class="cls-2" d="M72.49,103.62l81.22,49.6-.13.19L72.35,103.8l.13-.19"/><path class="cls-2" d="M72.35,103.8l81.22,49.6-.15.18L72.21,104l.15-.18"/><path class="cls-2" d="M72.21,104l81.22,49.6-.17.17L72,104.15l.17-.17"/><path class="cls-2" d="M72,104.15l81.22,49.6-.19.17-81.22-49.6.19-.17"/><path class="cls-2" d="M71.85,104.32l81.22,49.6-.24.17L71.61,104.5l.24-.17"/><path class="cls-2" d="M71.61,104.5l81.22,49.6-.34.19-81.22-49.6.34-.19"/><path class="cls-2" d="M71.27,104.69l81.22,49.6a3.65,3.65,0,0,1-.75.27,3.15,3.15,0,0,1-.77.09,3.22,3.22,0,0,1-1.66-.47l-81.22-49.6a3.22,3.22,0,0,0,1.66.47,3.15,3.15,0,0,0,.77-.09,3.65,3.65,0,0,0,.75-.27"/></g></g></g><path class="cls-10" d="M70,71.35a3.58,3.58,0,0,1,.76.09,3.21,3.21,0,0,1,2.47,3c0,.12,0,.23,0,.35q-.1,13.42-.21,26.85A3.23,3.23,0,0,1,70.52,105a3.15,3.15,0,0,1-.77.09,3.18,3.18,0,0,1-3.16-2.83c0-.35,0-.7,0-1.05q0-6.51.1-13c0-4.38.05-8.76.12-13.14a5,5,0,0,1,.41-2A3.05,3.05,0,0,1,70,71.35Z"/><path class="cls-10" d="M45.86,53.86a6.61,6.61,0,0,1,1.83.28c9.21,2.75,18.4,5.55,27.61,8.33,3.09.94,6.16,1.91,9.26,2.79a5.37,5.37,0,0,1,4,5.43c-.11,4.08-.08,8.17-.12,12.26s-.06,8.29-.1,12.43a5.22,5.22,0,0,1-5.26,5.22,5.53,5.53,0,0,1-1.47-.21c-1.38-.38-2.74-.85-4.1-1.31a1.29,1.29,0,0,1,.34-2.54,1.6,1.6,0,0,1,.46.07c1.34.41,2.65.87,4,1.26a2.8,2.8,0,0,0,.77.11,2.57,2.57,0,0,0,2.52-1.91,3.63,3.63,0,0,0,.09-.93q.1-12.29.2-24.58a2.55,2.55,0,0,0-2.08-2.8L62.63,61.36,47.06,56.64a4.14,4.14,0,0,0-1.18-.2,2.5,2.5,0,0,0-1.62.56,2.37,2.37,0,0,0-1,1.75c0,.31,0,.62,0,.94q-.07,7.95-.13,15.89a6.16,6.16,0,0,1-.05.88,1.3,1.3,0,0,1-2.57,0,4,4,0,0,1,0-.64q.06-8.27.13-16.54A5.15,5.15,0,0,1,45,53.92,5.2,5.2,0,0,1,45.86,53.86Z"/><g class="cls-6"><path class="cls-2" d="M86.05,65.91l81.22,49.6a5.34,5.34,0,0,1,2.55,4.78c-.11,4.08-.08,8.17-.12,12.26s-.06,8.29-.1,12.43a5.22,5.22,0,0,1-5.26,5.22,5.53,5.53,0,0,1-1.47-.21c-1.38-.38-2.74-.85-4.1-1.31a1.73,1.73,0,0,1-.36-.16L77.21,98.92a1.73,1.73,0,0,0,.36.16c1.36.45,2.72.92,4.1,1.31a5.53,5.53,0,0,0,1.47.21,5.22,5.22,0,0,0,5.26-5.22q.05-6.22.1-12.43c0-4.09,0-8.17.12-12.26A5.34,5.34,0,0,0,86.05,65.91Z"/><g class="cls-16"><g class="cls-8"><path class="cls-2" d="M86.05,65.91l81.22,49.6.33.22L86.38,66.13l-.33-.22"/><path class="cls-2" d="M86.38,66.13l81.22,49.6.32.25L86.71,66.38l-.32-.25"/><path class="cls-2" d="M86.71,66.38,167.93,116l.31.28L87,66.66l-.31-.28"/><path class="cls-2" d="M87,66.66l81.22,49.6.3.32L87.32,67l-.3-.32"/><path class="cls-2" d="M87.32,67l81.22,49.6q.16.18.3.38L87.61,67.36q-.14-.2-.3-.38"/><path class="cls-2" d="M87.61,67.36,168.84,117a5.22,5.22,0,0,1,.31.5L87.93,67.86a5.22,5.22,0,0,0-.31-.5"/><path class="cls-2" d="M87.93,67.86l81.22,49.6a5.31,5.31,0,0,1,.37.83L88.3,68.68a5.31,5.31,0,0,0-.37-.83"/><path class="cls-2" d="M88.3,68.68l81.22,49.6a5.57,5.57,0,0,1,.3,1.63L88.6,70.31a5.57,5.57,0,0,0-.3-1.63"/><path class="cls-2" d="M88.6,70.31l81.22,49.6q0,.19,0,.37c-.11,4.08-.08,8.17-.12,12.26s-.06,8.29-.1,12.43a5.52,5.52,0,0,1,0,.67L88.34,96.05a5.52,5.52,0,0,0,0-.67q.05-6.22.1-12.43c0-4.09,0-8.17.12-12.26q0-.19,0-.37"/><path class="cls-2" d="M88.34,96.05l81.22,49.6a5.34,5.34,0,0,1-.11.6L88.22,96.65a5.34,5.34,0,0,0,.11-.6"/><path class="cls-2" d="M88.22,96.65l81.22,49.6q-.06.24-.14.47L88.08,97.12q.08-.23.14-.47"/><path class="cls-2" d="M88.08,97.12l81.22,49.6q-.07.21-.16.4L87.92,97.52q.09-.2.16-.4"/><path class="cls-2" d="M87.92,97.52l81.22,49.6q-.08.19-.18.37L87.74,97.89q.1-.18.18-.37"/><path class="cls-2" d="M87.74,97.89,169,147.49l-.2.34L87.54,98.23l.2-.34"/><path class="cls-2" d="M87.54,98.23l81.22,49.6-.23.32L87.31,98.54l.23-.32"/><path class="cls-2" d="M87.31,98.54l81.22,49.6-.25.31L87.06,98.85l.25-.31"/><path class="cls-2" d="M87.06,98.85l81.22,49.6-.29.3L86.77,99.15l.29-.3"/><path class="cls-2" d="M86.77,99.15,168,148.75l-.34.29L86.44,99.44l.34-.29"/><path class="cls-2" d="M86.44,99.44,167.66,149q-.2.16-.41.3L86,99.74q.21-.14.41-.3"/><path class="cls-2" d="M86,99.74l81.22,49.6a5.23,5.23,0,0,1-.54.31L85.49,100a5.23,5.23,0,0,0,.54-.31"/><path class="cls-2" d="M85.49,100l81.22,49.6a5.25,5.25,0,0,1-2.36.55,5.53,5.53,0,0,1-1.47-.21c-1.38-.38-2.74-.85-4.1-1.31a1.73,1.73,0,0,1-.36-.16L77.21,98.92a1.73,1.73,0,0,0,.36.16c1.36.45,2.72.92,4.1,1.31a5.53,5.53,0,0,0,1.47.21,5.25,5.25,0,0,0,2.36-.55"/></g></g></g></g></g></g><path class="cls-17" d="M63.55,119.26H54.09a3.57,3.57,0,0,1-.66,0,1.12,1.12,0,0,1-.9-1.15,1.08,1.08,0,0,1,.89-1.08,3.08,3.08,0,0,1,.72,0H73.39a1.15,1.15,0,0,1,0,2.29c-.18,0-.35,0-.53,0Z"/><ellipse class="cls-18" cx="63.53" cy="40.7" rx="1.77" ry="1.76" transform="translate(21.91 103.64) rotate(-89.17)"/><path class="cls-19" d="M88.27,82.82q0,6.26,0,12.51a5.21,5.21,0,0,1-6.66,5.07c-1.38-.38-2.74-.85-4.1-1.3a1.3,1.3,0,0,1-.94-1.65,1.32,1.32,0,0,1,1.71-.84c1.33.4,2.65.86,4,1.25a2.58,2.58,0,0,0,3.27-1.82,3.73,3.73,0,0,0,.08-.93q0-12.37,0-24.73a2.58,2.58,0,0,0-2.1-2.81L62.31,61.21,46.75,56.52A2.84,2.84,0,0,0,44,56.9,2.38,2.38,0,0,0,43,58.67c0,.31,0,.63,0,.94q0,8,0,16a6.19,6.19,0,0,1,0,.88,1.3,1.3,0,0,1-2.57,0,4.25,4.25,0,0,1,0-.65q0-8.32,0-16.64a5.14,5.14,0,0,1,4.37-5.4,6.14,6.14,0,0,1,2.67.2c9.21,2.73,18.4,5.51,27.59,8.27,3.08.93,6.16,1.89,9.25,2.77a5.43,5.43,0,0,1,4.08,5.44C88.21,74.59,88.27,78.71,88.27,82.82Z"/><path class="cls-19" d="M66.54,88.15c0-4.41,0-8.81,0-13.22a5,5,0,0,1,.39-2,3.11,3.11,0,0,1,3.57-1.63,3.24,3.24,0,0,1,2.49,3c0,.12,0,.24,0,.35q0,13.51,0,27a3.23,3.23,0,0,1-2.49,3.36,3.19,3.19,0,0,1-3.93-2.74c0-.35,0-.71,0-1.06Q66.54,94.7,66.54,88.15Z"/><path class="cls-19" d="M63.76,88.29c0,3.34,0,6.69,0,10a3.24,3.24,0,1,1-6.46.27c0-2.22,0-4.45,0-6.67q0-6.9,0-13.81a3.23,3.23,0,0,1,2.46-3.32,3.14,3.14,0,0,1,4,2.76c.1,1.61.05,3.22.06,4.84C63.77,84.36,63.76,86.33,63.76,88.29Z"/><path class="cls-19" d="M54.5,88.22c0,2.24,0,4.48,0,6.72a3.22,3.22,0,1,1-6.43,0q0-6.72,0-13.45a3.21,3.21,0,1,1,6.43,0C54.5,83.73,54.5,86,54.5,88.22Z"/><path class="cls-19" d="M38.85,88.26c0-1.24,0-2.48,0-3.71a3.21,3.21,0,0,1,6.42-.11q.06,3.8,0,7.6A3.21,3.21,0,0,1,38.85,92C38.84,90.74,38.85,89.5,38.85,88.26Z"/><path class="cls-20" d="M122,0a37.68,37.68,0,1,0,38.79,62Z"/><path class="cls-3" d="M132.43,20.41c0,4.64,0,9.29,0,13.93a2.78,2.78,0,0,1-1.31,2.6c-7.67,5.46-15.33,10.94-22.92,16.51-1.36,1-1.86.63-2.62-.58-11.74-18.5-.49-44.2,21.07-48.06,5.76-1,5.76-1,5.76,4.8Q132.43,15,132.43,20.41Z"/><path class="cls-3" d="M134.45,68.82c-10.89-.22-19.17-4.09-25.67-11.82-.85-1-.62-1.38.32-2.05q11.66-8.3,23.25-16.71a2.37,2.37,0,0,1,2.81-.25c8.51,4,17,8,25.61,11.91,1.46.66,1.42,1.27.73,2.44C155.23,62.95,145.89,68.31,134.45,68.82Z"/><path class="cls-21" d="M134,19.11c0-4.57,0-9.15,0-13.72,0-1.34.32-1.89,1.75-1.76,12,1.11,20.71,7.2,26.44,17.72.52,1,.2,1.31-.7,1.69q-13.05,5.53-26.07,11.14c-1.18.51-1.42.22-1.41-1C134.07,28.52,134,23.81,134,19.11Z"/><path class="cls-21" d="M136.42,36.49a.46.46,0,0,1,0-.83l17-7.29c3-1.28,6-2.53,9-3.86,1-.45,1.41-.28,1.79.8a31.75,31.75,0,0,1-.36,22.59c-.3.77-.44,1.41-1.59.87C154.72,45.17,140.13,38.31,136.42,36.49Z"/></g></g></svg>