<svg xmlns="http://www.w3.org/2000/svg" xmlns:xlink="http://www.w3.org/1999/xlink" viewBox="0 0 227.72 238.14"><defs><style>.cls-1{fill:#fff;}.cls-11,.cls-2{fill:#adadad;}.cls-3{fill:#efefef;}.cls-4{fill:#444;}.cls-20,.cls-4{opacity:0.9;}.cls-5{clip-path:url(#clip-path);}.cls-6{opacity:0.2;}.cls-7,.cls-9{isolation:isolate;}.cls-8{clip-path:url(#clip-path-2);}.cls-11,.cls-9{opacity:0.9;}.cls-10{clip-path:url(#clip-path-3);}.cls-12{clip-path:url(#clip-path-4);}.cls-13{clip-path:url(#clip-path-5);}.cls-14{clip-path:url(#clip-path-6);}.cls-15{clip-path:url(#clip-path-7);}.cls-16{clip-path:url(#clip-path-8);}.cls-17{clip-path:url(#clip-path-9);}.cls-18{fill:#fefefe;}.cls-19{fill:#fdfdfd;}.cls-20{fill:#ba131a;}</style><clipPath id="clip-path"><path class="cls-1" d="M85.09,184.26q-36.87,0-73.73,0c-.85,0-1.06-.18-1.06-1q0-46,0-92c0-.88.24-1,1.07-1q73.82,0,147.64,0c.84,0,1.06.18,1.06,1q0,46,0,92c0,.88-.23,1-1.07,1Q122,184.25,85.09,184.26Z"/></clipPath><clipPath id="clip-path-2"><path class="cls-2" d="M164,201,55.13,134.5a1.83,1.83,0,0,0,.91.26L165,201.28A1.83,1.83,0,0,1,164,201Z"/></clipPath><clipPath id="clip-path-3"><path class="cls-2" d="M58.78,140.43l108.91,66.51a4.16,4.16,0,0,1,2,3.47c0,3.37,0,6.76-.08,10.13a4.23,4.23,0,0,1-4.45,4h-.11A4.11,4.11,0,0,1,163,224L54.12,157.47a4.11,4.11,0,0,0,2.05.6h.11a4.23,4.23,0,0,0,4.45-4c.08-3.37.11-6.76.08-10.13A4.16,4.16,0,0,0,58.78,140.43Z"/></clipPath><clipPath id="clip-path-4"><path class="cls-2" d="M113.68,122.2,222.6,188.71a5.4,5.4,0,0,0-1.25-.54l-28.45-8.62L172,173.22a5.56,5.56,0,0,0-1.59-.27,3.36,3.36,0,0,0-2.18.75,3.17,3.17,0,0,0-1.28,2.35c0,.42,0,.84,0,1.25q-.09,10.66-.17,21.31a8.27,8.27,0,0,1-.07,1.18,1.74,1.74,0,0,1-1.73,1.48L56,134.77a1.74,1.74,0,0,0,1.73-1.48,8.27,8.27,0,0,0,.07-1.18q.08-10.65.17-21.31c0-.42,0-.84,0-1.25a3.17,3.17,0,0,1,1.28-2.35,3.36,3.36,0,0,1,2.18-.75,5.56,5.56,0,0,1,1.59.27L84,113l28.45,8.62A5.4,5.4,0,0,1,113.68,122.2Z"/></clipPath><clipPath id="clip-path-5"><path class="cls-2" d="M71.28,136.33l108.91,66.51a4.21,4.21,0,0,1,2,3.7q0,4.47-.07,9t-.07,9a4.22,4.22,0,0,1-4.31,4.29,4.52,4.52,0,0,1-2.35-.64L66.46,161.59a4.52,4.52,0,0,0,2.35.64,4.22,4.22,0,0,0,4.31-4.29q0-4.48.07-9t.07-9A4.21,4.21,0,0,0,71.28,136.33Z"/></clipPath><clipPath id="clip-path-6"><path class="cls-2" d="M96.16,127.06l108.91,66.51a4.38,4.38,0,0,1,2.06,3.51L98.21,130.57A4.38,4.38,0,0,0,96.16,127.06Z"/></clipPath><clipPath id="clip-path-7"><path class="cls-2" d="M83.73,131.65l108.91,66.51a4,4,0,0,1,1.95,3.19c.12,2.14,0,4.29,0,6.44,0,2.62,0,5.24-.06,7.86,0,4.46-.06,8.91-.11,13.37a4.34,4.34,0,0,1-2.8,4.41,4.43,4.43,0,0,1-1.6.3,4.27,4.27,0,0,1-2.21-.63L78.93,166.59a4.27,4.27,0,0,0,2.21.63,4.43,4.43,0,0,0,1.6-.3,4.34,4.34,0,0,0,2.8-4.41c0-4.46.07-8.91.11-13.37,0-2.62,0-5.24.06-7.86,0-2.15.09-4.3,0-6.44A4,4,0,0,0,83.73,131.65Z"/></clipPath><clipPath id="clip-path-8"><path class="cls-2" d="M200.21,237.51,91.3,171a4.32,4.32,0,0,0,2.23.64,4.22,4.22,0,0,0,1-.12A4.34,4.34,0,0,0,97.94,167q.15-18,.28-36c0-.16,0-.32,0-.47l108.91,66.51c0,.16,0,.31,0,.47q-.14,18-.28,36a4.34,4.34,0,0,1-3.38,4.46,4.22,4.22,0,0,1-1,.12A4.32,4.32,0,0,1,200.21,237.51Z"/></clipPath><clipPath id="clip-path-9"><path class="cls-2" d="M115.39,119.14,224.3,185.65a7.15,7.15,0,0,1,3.42,6.41c-.15,5.47-.11,11-.16,16.44s-.09,11.11-.13,16.67a7,7,0,0,1-7,7,7.41,7.41,0,0,1-2-.28c-1.85-.51-3.67-1.15-5.5-1.75a2.32,2.32,0,0,1-.48-.22L103.53,163.4a2.32,2.32,0,0,0,.48.22c1.83.61,3.65,1.24,5.5,1.75a7.41,7.41,0,0,0,2,.28,7,7,0,0,0,7-7q.07-8.33.13-16.67c0-5.48,0-11,.16-16.44A7.15,7.15,0,0,0,115.39,119.14Z"/></clipPath></defs><title>Asset 116</title><g id="Layer_2" data-name="Layer 2"><g id="Layer_4" data-name="Layer 4"><circle class="cls-3" cx="112.15" cy="108.18" r="108.18"/><path class="cls-4" d="M0,188.88V85.59a5.9,5.9,0,0,1,3.56-4.66,11.88,11.88,0,0,1,2.12-.49h159a7.21,7.21,0,0,1,3.24,1.05,5.73,5.73,0,0,1,2.53,4.82c0,.18,0,.35,0,.53q0,50.44,0,100.87a6.06,6.06,0,0,1-3.25,5.66,6.85,6.85,0,0,1-3.07.73c-.15,0-.3,0-.44,0q-78.52,0-157,0a6.83,6.83,0,0,1-5.83-2.76A6.49,6.49,0,0,1,0,188.88Z"/><path class="cls-1" d="M85.09,184.26q-36.87,0-73.73,0c-.85,0-1.06-.18-1.06-1q0-46,0-92c0-.88.24-1,1.07-1q73.82,0,147.64,0c.84,0,1.06.18,1.06,1q0,46,0,92c0,.88-.23,1-1.07,1Q122,184.25,85.09,184.26Z"/><g class="cls-5"><g class="cls-6"><g class="cls-7"><g class="cls-7"><path class="cls-2" d="M164,201,55.13,134.5a1.83,1.83,0,0,0,.91.26L165,201.28A1.83,1.83,0,0,1,164,201Z"/><g class="cls-8"><g class="cls-9"><path class="cls-2" d="M56,134.77,165,201.28A1.83,1.83,0,0,1,164,201L55.13,134.5a1.83,1.83,0,0,0,.91.26"/></g></g></g><g class="cls-7"><path class="cls-2" d="M58.78,140.43l108.91,66.51a4.16,4.16,0,0,1,2,3.47c0,3.37,0,6.76-.08,10.13a4.23,4.23,0,0,1-4.45,4h-.11A4.11,4.11,0,0,1,163,224L54.12,157.47a4.11,4.11,0,0,0,2.05.6h.11a4.23,4.23,0,0,0,4.45-4c.08-3.37.11-6.76.08-10.13A4.16,4.16,0,0,0,58.78,140.43Z"/><g class="cls-10"><g class="cls-9"><path class="cls-2" d="M58.78,140.43l108.91,66.51.27.18L59,140.61l-.27-.18"/><path class="cls-2" d="M59,140.61,168,207.12l.27.21L59.31,140.81l-.27-.21"/><path class="cls-2" d="M59.31,140.81l108.91,66.51.26.23L59.57,141l-.26-.23"/><path class="cls-2" d="M59.57,141l108.91,66.51.25.27L59.82,141.32l-.25-.27"/><path class="cls-2" d="M59.82,141.32l108.91,66.51q.13.15.25.32L60.07,141.63q-.12-.16-.25-.32"/><path class="cls-2" d="M60.07,141.63,169,208.14a4.2,4.2,0,0,1,.25.39L60.32,142a4.2,4.2,0,0,0-.25-.39"/><path class="cls-2" d="M60.32,142l108.91,66.51a4,4,0,0,1,.28.63L60.6,142.66a4,4,0,0,0-.28-.63"/><path class="cls-2" d="M60.6,142.66l108.91,66.51a3.86,3.86,0,0,1,.21,1.11L60.81,143.77a3.86,3.86,0,0,0-.21-1.11"/><path class="cls-2" d="M60.81,143.77l108.91,66.51s0,.09,0,.13c0,3.37,0,6.76-.08,10.13a4.19,4.19,0,0,1,0,.46L60.7,154.49a4.19,4.19,0,0,0,0-.46c.08-3.37.11-6.76.08-10.13q0-.06,0-.13"/><path class="cls-2" d="M60.7,154.49,169.62,221a4,4,0,0,1-.08.45L60.62,154.93a4,4,0,0,0,.08-.45"/><path class="cls-2" d="M60.62,154.93l108.91,66.51q0,.18-.11.36L60.51,155.29q.06-.17.11-.36"/><path class="cls-2" d="M60.51,155.29,169.43,221.8q-.06.16-.12.31L60.39,155.6q.07-.15.12-.31"/><path class="cls-2" d="M60.39,155.6,169.3,222.11l-.14.28L60.25,155.87l.14-.28"/><path class="cls-2" d="M60.25,155.87l108.91,66.51-.15.26L60.1,156.13l.15-.26"/><path class="cls-2" d="M60.1,156.13,169,222.64l-.17.25L59.92,156.38l.17-.25"/><path class="cls-2" d="M59.92,156.38l108.91,66.51-.2.24L59.73,156.61l.2-.24"/><path class="cls-2" d="M59.73,156.61l108.91,66.51-.23.23L59.5,156.85l.23-.23"/><path class="cls-2" d="M59.5,156.85l108.91,66.51-.27.23L59.23,157.08l.27-.23"/><path class="cls-2" d="M59.23,157.08l108.91,66.51-.33.24L58.9,157.32l.33-.24"/><path class="cls-2" d="M58.9,157.32l108.91,66.51a4.39,4.39,0,0,1-.46.27L58.44,157.59a4.39,4.39,0,0,0,.46-.27"/><path class="cls-2" d="M58.44,157.59,167.36,224.1a4.8,4.8,0,0,1-2.16.49h-.11A4.11,4.11,0,0,1,163,224L54.12,157.47a4.11,4.11,0,0,0,2.05.6h.11a4.8,4.8,0,0,0,2.16-.49"/></g></g></g><path class="cls-11" d="M56.58,139.8a4.27,4.27,0,0,1,4.24,4.1c0,3.37,0,6.76-.08,10.13a4.23,4.23,0,0,1-4.45,4h-.11a4.19,4.19,0,0,1-4.07-4.17c0-1.65,0-3.3,0-5s0-3.3,0-4.95a4.29,4.29,0,0,1,4.27-4.2Z"/><g class="cls-7"><path class="cls-2" d="M113.68,122.2,222.6,188.71a5.4,5.4,0,0,0-1.25-.54l-28.45-8.62L172,173.22a5.56,5.56,0,0,0-1.59-.27,3.36,3.36,0,0,0-2.18.75,3.17,3.17,0,0,0-1.28,2.35c0,.42,0,.84,0,1.25q-.09,10.66-.17,21.31a8.27,8.27,0,0,1-.07,1.18,1.74,1.74,0,0,1-1.73,1.48L56,134.77a1.74,1.74,0,0,0,1.73-1.48,8.27,8.27,0,0,0,.07-1.18q.08-10.65.17-21.31c0-.42,0-.84,0-1.25a3.17,3.17,0,0,1,1.28-2.35,3.36,3.36,0,0,1,2.18-.75,5.56,5.56,0,0,1,1.59.27L84,113l28.45,8.62A5.4,5.4,0,0,1,113.68,122.2Z"/><g class="cls-12"><g class="cls-9"><path class="cls-2" d="M113.68,122.2,222.6,188.71a5.4,5.4,0,0,0-1.25-.54l-28.45-8.62L172,173.22a5.56,5.56,0,0,0-1.59-.27,3.37,3.37,0,0,0-1.54.35L60,106.79a3.37,3.37,0,0,1,1.54-.35,5.56,5.56,0,0,1,1.59.27L84,113l28.45,8.62a5.4,5.4,0,0,1,1.25.54"/><path class="cls-2" d="M60,106.79,168.89,173.3l-.36.21L59.61,107l.36-.21"/><path class="cls-2" d="M59.61,107l108.91,66.51-.28.2,0,0L59.31,107.22l0,0,.28-.2"/><path class="cls-2" d="M59.31,107.22l108.91,66.51L168,174,59.05,107.44l.26-.23"/><path class="cls-2" d="M59.05,107.44,168,174l-.2.21L58.85,107.65l.2-.21"/><path class="cls-2" d="M58.85,107.65l108.91,66.51-.16.2L58.68,107.85l.16-.2"/><path class="cls-2" d="M58.68,107.85,167.6,174.36l-.14.2L58.55,108l.14-.2"/><path class="cls-2" d="M58.55,108l108.91,66.51-.12.2L58.43,108.25l.12-.2"/><path class="cls-2" d="M58.43,108.25l108.91,66.51-.11.21L58.32,108.46l.11-.21"/><path class="cls-2" d="M58.32,108.46,167.23,175l-.09.23L58.23,108.7l.09-.23"/><path class="cls-2" d="M58.23,108.7,167.14,175.2q0,.13-.08.27L58.15,109q0-.14.08-.27"/><path class="cls-2" d="M58.15,109l108.91,66.51a3.17,3.17,0,0,0-.07.35L58.08,109.32a3.17,3.17,0,0,1,.07-.35"/><path class="cls-2" d="M58.08,109.32,167,175.83q0,.11,0,.23c0,.42,0,.84,0,1.25q-.09,10.66-.17,21.31a8.78,8.78,0,0,1-.06,1.1L57.78,133.21a8.78,8.78,0,0,0,.06-1.1q.08-10.65.17-21.31c0-.42,0-.84,0-1.25q0-.12,0-.23"/><path class="cls-2" d="M57.78,133.21l108.91,66.51v.08q0,.08,0,.16L57.74,133.45q0-.08,0-.16v-.08"/><path class="cls-2" d="M57.74,133.45,166.65,200l0,.15L57.69,133.61l0-.15"/><path class="cls-2" d="M57.69,133.61,166.6,200.12l-.05.13L57.64,133.74l.05-.13"/><path class="cls-2" d="M57.64,133.74l108.91,66.51-.06.12L57.58,133.86l.06-.12"/><path class="cls-2" d="M57.58,133.86l108.91,66.51-.07.11L57.51,134l.07-.11"/><path class="cls-2" d="M57.51,134l108.91,66.51-.08.11L57.43,134.08l.08-.11"/><path class="cls-2" d="M57.43,134.08l108.91,66.51-.08.1L57.35,134.19l.08-.1"/><path class="cls-2" d="M57.35,134.19l108.91,66.51-.1.1L57.25,134.29l.1-.1"/><path class="cls-2" d="M57.25,134.29l108.91,66.51-.11.1L57.14,134.38l.11-.1"/><path class="cls-2" d="M57.14,134.38l108.91,66.51-.14.1L57,134.48l.14-.1"/><path class="cls-2" d="M57,134.48,165.92,201l-.18.11L56.82,134.59l.18-.11"/><path class="cls-2" d="M56.82,134.59,165.73,201.1a1.73,1.73,0,0,1-.78.18L56,134.77a1.73,1.73,0,0,0,.78-.18"/></g></g></g><path class="cls-11" d="M69,135.7A4.19,4.19,0,0,1,73.26,140q0,4.47-.07,9t-.07,9a4.32,4.32,0,0,1-8.65,0q0-9,.14-17.92A4.26,4.26,0,0,1,69,135.7Z"/><g class="cls-7"><path class="cls-2" d="M71.28,136.33l108.91,66.51a4.21,4.21,0,0,1,2,3.7q0,4.47-.07,9t-.07,9a4.22,4.22,0,0,1-4.31,4.29,4.52,4.52,0,0,1-2.35-.64L66.46,161.59a4.52,4.52,0,0,0,2.35.64,4.22,4.22,0,0,0,4.31-4.29q0-4.48.07-9t.07-9A4.21,4.21,0,0,0,71.28,136.33Z"/><g class="cls-13"><g class="cls-9"><path class="cls-2" d="M71.28,136.33l108.91,66.51.25.16L71.53,136.49l-.25-.16"/><path class="cls-2" d="M71.53,136.49,180.44,203l.24.19L71.77,136.68l-.24-.19"/><path class="cls-2" d="M71.77,136.68l108.91,66.51.24.21L72,136.9l-.24-.21"/><path class="cls-2" d="M72,136.9l108.91,66.51.23.25L72.24,137.14,72,136.9"/><path class="cls-2" d="M72.24,137.14l108.91,66.51.23.3L72.47,137.44l-.23-.3"/><path class="cls-2" d="M72.47,137.44l108.91,66.51a4.1,4.1,0,0,1,.25.4L72.72,137.84a4.1,4.1,0,0,0-.25-.4"/><path class="cls-2" d="M72.72,137.84l108.91,66.51a4.21,4.21,0,0,1,.29.66L73,138.5a4.21,4.21,0,0,0-.29-.66"/><path class="cls-2" d="M73,138.5,181.93,205a4.54,4.54,0,0,1,.24,1.3L73.26,139.8a4.54,4.54,0,0,0-.24-1.3"/><path class="cls-2" d="M73.26,139.8l108.91,66.51q0,.11,0,.23,0,4.47-.07,9t-.07,9a4.82,4.82,0,0,1,0,.59L73.08,158.53a4.82,4.82,0,0,0,0-.59q0-4.48.07-9t.07-9,0-.23"/><path class="cls-2" d="M73.08,158.53,182,225a4.57,4.57,0,0,1-.1.51L73,159a4.57,4.57,0,0,0,.1-.51"/><path class="cls-2" d="M73,159,181.9,225.55q-.05.2-.12.39L72.86,159.43q.07-.19.12-.39"/><path class="cls-2" d="M72.86,159.43l108.91,66.51q-.06.17-.13.34L72.73,159.77q.07-.16.13-.34"/><path class="cls-2" d="M72.73,159.77l108.91,66.51-.15.3L72.58,160.06l.15-.3"/><path class="cls-2" d="M72.58,160.06,181.5,226.57l-.16.27L72.42,160.34l.16-.27"/><path class="cls-2" d="M72.42,160.34l108.91,66.51-.18.26L72.24,160.59l.18-.26"/><path class="cls-2" d="M72.24,160.59,181.15,227.1l-.2.24L72,160.83l.2-.24"/><path class="cls-2" d="M72,160.83,181,227.34l-.23.23L71.81,161.07l.23-.23"/><path class="cls-2" d="M71.81,161.07l108.91,66.51-.26.23L71.55,161.3l.26-.23"/><path class="cls-2" d="M71.55,161.3l108.91,66.51-.32.23L71.23,161.53l.32-.23"/><path class="cls-2" d="M71.23,161.53,180.14,228a4.15,4.15,0,0,1-.43.24L70.8,161.78a4.15,4.15,0,0,0,.43-.24"/><path class="cls-2" d="M70.8,161.78l108.91,66.51a4.44,4.44,0,0,1-2,.45,4.52,4.52,0,0,1-2.35-.64L66.46,161.59a4.52,4.52,0,0,0,2.35.64,4.44,4.44,0,0,0,2-.45"/></g></g></g><g class="cls-7"><path class="cls-2" d="M96.16,127.06l108.91,66.51a4.38,4.38,0,0,1,2.06,3.51L98.21,130.57A4.38,4.38,0,0,0,96.16,127.06Z"/><g class="cls-14"><g class="cls-9"><path class="cls-2" d="M96.16,127.06l108.91,66.51.25.17L96.41,127.22l-.25-.17"/><path class="cls-2" d="M96.41,127.22l108.91,66.51.25.2L96.66,127.42l-.25-.2"/><path class="cls-2" d="M96.66,127.42l108.91,66.51.25.22L96.91,127.64l-.25-.22"/><path class="cls-2" d="M96.91,127.64l108.91,66.51.24.26L97.15,127.9l-.24-.26"/><path class="cls-2" d="M97.15,127.9l108.91,66.51q.13.15.25.31L97.4,128.22q-.12-.16-.25-.31"/><path class="cls-2" d="M97.4,128.22l108.91,66.51a4.36,4.36,0,0,1,.26.41L97.66,128.63a4.36,4.36,0,0,0-.26-.41"/><path class="cls-2" d="M97.66,128.63l108.91,66.51a4.43,4.43,0,0,1,.31.69L98,129.32a4.43,4.43,0,0,0-.31-.69"/><path class="cls-2" d="M98,129.32l108.91,66.51a4.59,4.59,0,0,1,.25,1.24L98.21,130.57a4.59,4.59,0,0,0-.25-1.24"/></g></g></g><path class="cls-11" d="M81.48,131a4.16,4.16,0,0,1,4.2,3.83c.12,2.14,0,4.29,0,6.44,0,2.62,0,5.24-.06,7.86,0,4.46-.06,8.91-.11,13.37a4.34,4.34,0,0,1-2.8,4.41,4.43,4.43,0,0,1-1.6.3,4.33,4.33,0,0,1-4.29-4.39c0-3,0-5.92.06-8.88q.07-9.2.14-18.4A4.42,4.42,0,0,1,81.48,131Z"/><g class="cls-7"><path class="cls-2" d="M83.73,131.65l108.91,66.51a4,4,0,0,1,1.95,3.19c.12,2.14,0,4.29,0,6.44,0,2.62,0,5.24-.06,7.86,0,4.46-.06,8.91-.11,13.37a4.34,4.34,0,0,1-2.8,4.41,4.43,4.43,0,0,1-1.6.3,4.27,4.27,0,0,1-2.21-.63L78.93,166.59a4.27,4.27,0,0,0,2.21.63,4.43,4.43,0,0,0,1.6-.3,4.34,4.34,0,0,0,2.8-4.41c0-4.46.07-8.91.11-13.37,0-2.62,0-5.24.06-7.86,0-2.15.09-4.3,0-6.44A4,4,0,0,0,83.73,131.65Z"/><g class="cls-15"><g class="cls-9"><path class="cls-2" d="M83.73,131.65l108.91,66.51.26.17L84,131.82l-.26-.17"/><path class="cls-2" d="M84,131.82,192.9,198.33l.26.2L84.24,132l-.26-.2"/><path class="cls-2" d="M84.24,132l108.91,66.51.25.22L84.49,132.24l-.25-.22"/><path class="cls-2" d="M84.49,132.24,193.4,198.75l.24.25L84.72,132.49l-.24-.25"/><path class="cls-2" d="M84.72,132.49,193.64,199l.23.3L85,132.79l-.23-.3"/><path class="cls-2" d="M85,132.79,193.87,199.3a4,4,0,0,1,.24.38L85.2,133.17a4,4,0,0,0-.24-.38"/><path class="cls-2" d="M85.2,133.17l108.91,66.51a3.88,3.88,0,0,1,.27.61L85.47,133.78a3.88,3.88,0,0,0-.27-.61"/><path class="cls-2" d="M85.47,133.78l108.91,66.51a3.89,3.89,0,0,1,.21,1.06q0,.36,0,.73L85.71,135.56q0-.36,0-.73a3.89,3.89,0,0,0-.21-1.06"/><path class="cls-2" d="M85.71,135.56l108.91,66.51c.07,1.9,0,3.81,0,5.72,0,2.62,0,5.24-.06,7.86,0,4.46-.06,8.91-.11,13.37a7,7,0,0,1-.06.84L85.48,163.35a7,7,0,0,0,.06-.84c0-4.46.07-8.91.11-13.37,0-2.62,0-5.24.06-7.86,0-1.91.07-3.82,0-5.72"/><path class="cls-2" d="M85.48,163.35l108.91,66.51a5.7,5.7,0,0,1-.12.63L85.36,164a5.7,5.7,0,0,0,.12-.63"/><path class="cls-2" d="M85.36,164l108.91,66.51q-.06.23-.13.44L85.23,164.42q.07-.21.13-.44"/><path class="cls-2" d="M85.23,164.42l108.91,66.51q-.06.18-.14.35L85.09,164.77q.08-.17.14-.35"/><path class="cls-2" d="M85.09,164.77,194,231.28l-.15.3L84.94,165.07l.15-.3"/><path class="cls-2" d="M84.94,165.07l108.91,66.51-.16.26L84.78,165.33l.16-.26"/><path class="cls-2" d="M84.78,165.33,193.7,231.84l-.17.24L84.62,165.57l.17-.24"/><path class="cls-2" d="M84.62,165.57l108.91,66.51-.19.23L84.43,165.79l.19-.23"/><path class="cls-2" d="M84.43,165.79,193.34,232.3l-.21.22L84.22,166l.21-.22"/><path class="cls-2" d="M84.22,166l108.91,66.51-.25.22L84,166.23l.25-.22"/><path class="cls-2" d="M84,166.23l108.91,66.51-.32.23L83.64,166.47l.32-.23"/><path class="cls-2" d="M83.64,166.47,192.56,233a4.44,4.44,0,0,1-.46.26L83.18,166.73a4.44,4.44,0,0,0,.46-.26"/><path class="cls-2" d="M83.18,166.73,192.1,233.24l-.44.19a4.43,4.43,0,0,1-1.6.3,4.27,4.27,0,0,1-2.21-.63L78.93,166.59a4.27,4.27,0,0,0,2.21.63,4.43,4.43,0,0,0,1.6-.3l.44-.19"/></g></g></g><g class="cls-7"><path class="cls-2" d="M200.21,237.51,91.3,171a4.32,4.32,0,0,0,2.23.64,4.22,4.22,0,0,0,1-.12A4.34,4.34,0,0,0,97.94,167q.15-18,.28-36c0-.16,0-.32,0-.47l108.91,66.51c0,.16,0,.31,0,.47q-.14,18-.28,36a4.34,4.34,0,0,1-3.38,4.46,4.22,4.22,0,0,1-1,.12A4.32,4.32,0,0,1,200.21,237.51Z"/><g class="cls-16"><g class="cls-9"><path class="cls-2" d="M98.21,130.57l108.91,66.51s0,.07,0,.1L98.22,130.67s0-.07,0-.1"/><path class="cls-2" d="M98.22,130.67l108.91,66.51c0,.12,0,.24,0,.37q-.14,18-.28,36a5.93,5.93,0,0,1-.05.73L97.89,167.77a5.93,5.93,0,0,0,.05-.73q.15-18,.28-36c0-.13,0-.25,0-.37"/><path class="cls-2" d="M97.89,167.77,206.8,234.28a5.24,5.24,0,0,1-.11.58L97.78,168.35a5.24,5.24,0,0,0,.11-.58"/><path class="cls-2" d="M97.78,168.35l108.91,66.51q-.05.22-.13.42L97.65,168.78q.07-.21.13-.42"/><path class="cls-2" d="M97.65,168.78l108.91,66.51q-.06.18-.14.35L97.51,169.13q.08-.17.14-.35"/><path class="cls-2" d="M97.51,169.13l108.91,66.51q-.07.16-.15.3L97.36,169.43q.08-.15.15-.3"/><path class="cls-2" d="M97.36,169.43l108.91,66.51-.16.27L97.2,169.71l.16-.27"/><path class="cls-2" d="M97.2,169.71l108.91,66.51-.18.25L97,170l.18-.25"/><path class="cls-2" d="M97,170l108.91,66.51-.2.24L96.82,170.19,97,170"/><path class="cls-2" d="M96.82,170.19,205.74,236.7l-.22.23L96.6,170.42l.22-.23"/><path class="cls-2" d="M96.6,170.42l108.91,66.51-.26.23L96.34,170.65l.26-.23"/><path class="cls-2" d="M96.34,170.65l108.91,66.51-.32.23L96,170.89l.32-.23"/><path class="cls-2" d="M96,170.89l108.91,66.51a4.35,4.35,0,0,1-.46.26L95.56,171.15a4.35,4.35,0,0,0,.46-.26"/><path class="cls-2" d="M95.56,171.15l108.91,66.51a4.89,4.89,0,0,1-1,.36,4.22,4.22,0,0,1-1,.12,4.32,4.32,0,0,1-2.23-.64L91.3,171a4.32,4.32,0,0,0,2.23.64,4.22,4.22,0,0,0,1-.12,4.89,4.89,0,0,0,1-.36"/></g></g></g><path class="cls-11" d="M93.88,126.43a4.79,4.79,0,0,1,1,.11,4.31,4.31,0,0,1,3.31,4c0,.16,0,.31,0,.47q-.14,18-.28,36a4.34,4.34,0,0,1-3.38,4.46,4.22,4.22,0,0,1-1,.12,4.26,4.26,0,0,1-4.23-3.79c0-.47-.05-.94,0-1.41q.06-8.73.13-17.46c0-5.87.07-11.74.16-17.62a6.63,6.63,0,0,1,.54-2.65A4.09,4.09,0,0,1,93.88,126.43Z"/><path class="cls-11" d="M61.5,103a8.86,8.86,0,0,1,2.46.37c12.35,3.69,24.68,7.44,37,11.18,4.14,1.25,8.26,2.56,12.42,3.74a7.21,7.21,0,0,1,5.42,7.28c-.15,5.47-.11,11-.16,16.44s-.09,11.11-.13,16.67a7,7,0,0,1-7,7,7.41,7.41,0,0,1-2-.28c-1.85-.51-3.67-1.15-5.5-1.75a1.72,1.72,0,0,1,.45-3.4,2.15,2.15,0,0,1,.62.1c1.79.55,3.56,1.16,5.35,1.69a3.75,3.75,0,0,0,1,.15,3.45,3.45,0,0,0,3.38-2.56,4.87,4.87,0,0,0,.12-1.25q.14-16.48.26-33a3.43,3.43,0,0,0-2.79-3.75L84,113,63.1,106.71a5.56,5.56,0,0,0-1.59-.27,3.36,3.36,0,0,0-2.18.75,3.17,3.17,0,0,0-1.28,2.35c0,.42,0,.84,0,1.25q-.09,10.66-.17,21.31a8.27,8.27,0,0,1-.07,1.18,1.74,1.74,0,0,1-3.45,0,5.36,5.36,0,0,1,0-.86q.08-11.09.17-22.18a6.9,6.9,0,0,1,5.93-7.17A7,7,0,0,1,61.5,103Z"/><g class="cls-7"><path class="cls-2" d="M115.39,119.14,224.3,185.65a7.15,7.15,0,0,1,3.42,6.41c-.15,5.47-.11,11-.16,16.44s-.09,11.11-.13,16.67a7,7,0,0,1-7,7,7.41,7.41,0,0,1-2-.28c-1.85-.51-3.67-1.15-5.5-1.75a2.32,2.32,0,0,1-.48-.22L103.53,163.4a2.32,2.32,0,0,0,.48.22c1.83.61,3.65,1.24,5.5,1.75a7.41,7.41,0,0,0,2,.28,7,7,0,0,0,7-7q.07-8.33.13-16.67c0-5.48,0-11,.16-16.44A7.15,7.15,0,0,0,115.39,119.14Z"/><g class="cls-17"><g class="cls-9"><path class="cls-2" d="M115.39,119.14,224.3,185.65l.44.29L115.83,119.44l-.44-.29"/><path class="cls-2" d="M115.83,119.44l108.91,66.51.43.34L116.27,119.77l-.43-.34"/><path class="cls-2" d="M116.27,119.77l108.91,66.51.41.37L116.68,120.15l-.41-.37"/><path class="cls-2" d="M116.68,120.15l108.91,66.51q.21.21.4.43L117.08,120.58q-.19-.22-.4-.43"/><path class="cls-2" d="M117.08,120.58,226,187.09q.21.25.4.51L117.48,121.08q-.19-.26-.4-.51"/><path class="cls-2" d="M117.48,121.08,226.4,187.59a7,7,0,0,1,.42.67L117.9,121.75a7,7,0,0,0-.42-.67"/><path class="cls-2" d="M117.9,121.75l108.91,66.51a7.12,7.12,0,0,1,.49,1.11L118.4,122.86a7.12,7.12,0,0,0-.49-1.11"/><path class="cls-2" d="M118.4,122.86l108.91,66.51a7.47,7.47,0,0,1,.41,2.19L118.8,125a7.47,7.47,0,0,0-.41-2.19"/><path class="cls-2" d="M118.8,125l108.91,66.51q0,.25,0,.5c-.15,5.47-.11,11-.16,16.44s-.09,11.11-.13,16.67a7.41,7.41,0,0,1-.06.9L118.45,159.56a7.41,7.41,0,0,0,.06-.9q.07-8.33.13-16.67c0-5.48,0-11,.16-16.44q0-.25,0-.5"/><path class="cls-2" d="M118.45,159.56l108.91,66.51a7.16,7.16,0,0,1-.15.8L118.3,160.36a7.16,7.16,0,0,0,.15-.8"/><path class="cls-2" d="M118.3,160.36l108.91,66.51q-.08.32-.19.63L118.11,161q.11-.31.19-.63"/><path class="cls-2" d="M118.11,161,227,227.5q-.1.28-.22.54L117.9,161.53q.12-.27.22-.54"/><path class="cls-2" d="M117.9,161.53,226.81,228q-.11.25-.24.49L117.65,162q.13-.24.24-.49"/><path class="cls-2" d="M117.65,162l108.91,66.51q-.13.23-.27.45L117.38,162.48q.14-.22.27-.45"/><path class="cls-2" d="M117.38,162.48,226.3,229q-.14.22-.3.43L117.08,162.9q.16-.21.3-.43"/><path class="cls-2" d="M117.08,162.9,226,229.41q-.16.21-.34.41L116.74,163.31q.18-.2.34-.41"/><path class="cls-2" d="M116.74,163.31l108.91,66.51q-.18.21-.39.4L116.36,163.71q.2-.19.39-.4"/><path class="cls-2" d="M116.36,163.71l108.91,66.51q-.22.21-.45.39L115.9,164.11q.23-.19.45-.39"/><path class="cls-2" d="M115.9,164.11l108.91,66.51q-.26.21-.55.4L115.36,164.5q.28-.19.55-.4"/><path class="cls-2" d="M115.36,164.5,224.27,231a7,7,0,0,1-.72.41L114.64,164.92a7,7,0,0,0,.72-.41"/><path class="cls-2" d="M114.64,164.92l108.91,66.51a7,7,0,0,1-3.17.73,7.41,7.41,0,0,1-2-.28c-1.85-.51-3.67-1.15-5.5-1.75a2.32,2.32,0,0,1-.48-.22L103.53,163.4a2.32,2.32,0,0,0,.48.22c1.83.61,3.65,1.24,5.5,1.75a7.41,7.41,0,0,0,2,.28,7,7,0,0,0,3.17-.73"/></g></g></g></g></g></g><path class="cls-18" d="M85.21,190.68H72.54a4.79,4.79,0,0,1-.88,0,1.5,1.5,0,0,1-1.2-1.54,1.44,1.44,0,0,1,1.19-1.45,4.13,4.13,0,0,1,1-.05H97.79c.21,0,.41,0,.62,0a1.54,1.54,0,0,1,0,3.07c-.24,0-.47,0-.71,0Z"/><ellipse class="cls-19" cx="85.18" cy="85.34" rx="2.37" ry="2.36" transform="translate(-1.38 169.29) rotate(-89.17)"/><path class="cls-20" d="M118.36,141.82q0,8.39,0,16.78a7,7,0,0,1-8.94,6.8c-1.85-.51-3.67-1.14-5.5-1.74a1.75,1.75,0,0,1-1.26-2.21,1.77,1.77,0,0,1,2.3-1.12c1.79.54,3.56,1.16,5.35,1.68a3.46,3.46,0,0,0,4.39-2.44,5,5,0,0,0,.11-1.25q0-16.58,0-33.16a3.46,3.46,0,0,0-2.81-3.76l-28.44-8.55-20.87-6.28a3.81,3.81,0,0,0-3.74.5,3.19,3.19,0,0,0-1.26,2.37c0,.42,0,.84,0,1.26q0,10.72,0,21.45a8.3,8.3,0,0,1-.06,1.18,1.74,1.74,0,0,1-3.44,0,5.7,5.7,0,0,1-.05-.87q0-11.16,0-22.32c0-3.8,2.23-6.63,5.86-7.24a8.23,8.23,0,0,1,3.57.27c12.34,3.66,24.67,7.38,37,11.09,4.13,1.24,8.25,2.54,12.41,3.71a7.28,7.28,0,0,1,5.46,7.3C118.28,130.79,118.36,136.3,118.36,141.82Z"/><path class="cls-20" d="M89.22,149c0-5.91,0-11.82,0-17.73a6.69,6.69,0,0,1,.52-2.67,4.17,4.17,0,0,1,4.79-2.19,4.35,4.35,0,0,1,3.34,4c0,.16,0,.32,0,.47q0,18.12,0,36.24a4.33,4.33,0,0,1-3.34,4.5A4.28,4.28,0,0,1,89.29,168c0-.47-.06-.95-.06-1.42Q89.22,157.75,89.22,149Z"/><path class="cls-20" d="M85.5,149.16c0,4.48,0,9,0,13.45a4.34,4.34,0,1,1-8.66.37c0-3,0-6,0-8.94q0-9.26,0-18.52a4.33,4.33,0,0,1,3.3-4.46,4.22,4.22,0,0,1,5.3,3.7c.13,2.15.07,4.32.08,6.48C85.51,143.88,85.5,146.52,85.5,149.16Z"/><path class="cls-20" d="M73.08,149.05c0,3,0,6,0,9a4.31,4.31,0,1,1-8.62,0q0-9,0-18a4.31,4.31,0,1,1,8.62,0C73.09,143,73.08,146,73.08,149.05Z"/><path class="cls-20" d="M52.09,149.11c0-1.66,0-3.32,0-5a4.3,4.3,0,0,1,8.6-.14q.08,5.1,0,10.2a4.31,4.31,0,0,1-8.61-.09C52.08,152.43,52.09,150.77,52.09,149.11Z"/><path class="cls-3" d="M163.64,30.76a50.53,50.53,0,1,0,52,83.18Z"/><path class="cls-4" d="M177.57,58.14c0,6.23,0,12.46,0,18.68a3.73,3.73,0,0,1-1.75,3.48c-10.29,7.32-20.56,14.66-30.73,22.14-1.83,1.34-2.49.84-3.52-.78-15.74-24.81-.65-59.27,28.25-64.44,7.72-1.38,7.72-1.38,7.72,6.44Q177.57,50.9,177.57,58.14Z"/><path class="cls-4" d="M180.28,123c-14.61-.29-25.71-5.48-34.42-15.84-1.15-1.36-.83-1.85.43-2.75Q161.93,93.31,177.47,82a3.17,3.17,0,0,1,3.76-.34c11.41,5.4,22.85,10.75,34.34,16,2,.89,1.91,1.7,1,3.27C208.14,115.17,195.62,122.36,180.28,123Z"/><path class="cls-20" d="M179.74,56.38c0-6.13.06-12.27,0-18.4,0-1.79.43-2.54,2.35-2.36,16.14,1.49,27.77,9.65,35.45,23.76.7,1.29.27,1.76-.94,2.27q-17.5,7.41-35,14.94c-1.58.68-1.9.3-1.89-1.29C179.78,69,179.74,62.69,179.74,56.38Z"/><path class="cls-20" d="M182.92,79.69a.61.61,0,0,1,0-1.11L205.8,68.8c4-1.72,8.06-3.39,12.05-5.18,1.35-.6,1.9-.38,2.4,1.07A42.58,42.58,0,0,1,219.77,95c-.41,1-.59,1.89-2.13,1.16C207.46,91.34,187.9,82.13,182.92,79.69Z"/></g></g></svg>