<svg xmlns="http://www.w3.org/2000/svg" viewBox="0 0 308 308"><defs><style>.cls-1{fill:#dbd9d9;}.cls-2{fill:#bababa;}.cls-3{fill:#9e9d9d;}.cls-4{fill:#757575;}.cls-5{fill:#ef3f54;}.cls-6{fill:#ba131a;}</style></defs><title>Asset 110</title><g id="Layer_2" data-name="Layer 2"><g id="Layer_2-2" data-name="Layer 2"><circle class="cls-1" cx="154" cy="154" r="154"/><path class="cls-2" d="M155.21,308A154,154,0,0,0,305.7,180.64l-111-111L187,69.51l-28.9,1.34L172.74,85.5l-53.38,36.28L81.24,151.34l65.44,65.44L85,237.81Z"/><polygon class="cls-3" points="174.22 118.9 174.22 148.63 129.63 148.63 129.63 178.36 85.04 178.36 85.04 237.82 129.63 237.82 174.22 237.82 218.81 237.82 218.81 118.9 174.22 118.9"/><rect class="cls-4" x="107.51" y="178.36" width="22.12" height="59.45"/><rect class="cls-4" x="152.62" y="148.63" width="21.6" height="89.19"/><rect class="cls-4" x="196.95" y="118.9" width="21.86" height="118.92"/><path class="cls-5" d="M192,68.15,162.6,63.5a4.67,4.67,0,0,0-1.46,9.22l18.12,2.87L82.33,144.83a4.67,4.67,0,1,0,5.42,7.6L184.88,83,182,101.39a4.67,4.67,0,1,0,9.22,1.46l4.65-29.36A4.66,4.66,0,0,0,192,68.15Z"/><path class="cls-6" d="M81.11,151.12c0,.07.08.15.13.22a4.67,4.67,0,0,0,6.51,1.09l97.13-69.38L182,101.39a4.67,4.67,0,1,0,9.22,1.46l4.65-29.36A4.65,4.65,0,0,0,195,70Z"/></g></g></svg>