<svg xmlns="http://www.w3.org/2000/svg" viewBox="0 0 308 308"><defs><style>.cls-1{fill:#dbd9d9;}.cls-2{fill:#bababa;}.cls-3{fill:#ef3f54;}.cls-4{fill:#8e8e8e;}.cls-5{fill:#ba131a;}.cls-6{fill:#666;}.cls-7{fill:#b5b5b5;}</style></defs><title>Asset 111</title><g id="Layer_2" data-name="Layer 2"><g id="Layer_2-2" data-name="Layer 2"><circle class="cls-1" cx="154" cy="154" r="154"/><path class="cls-2" d="M194.09,302.72A154.21,154.21,0,0,0,305.07,184L194.66,73.59,118.32,88.14l8.89,107.67,11,11-9.37,4.76,7.11,7.11-6.27,3,6.47,6.47-4.18,4.41,5.47,5.47-1.87,6.17Z"/><path class="cls-3" d="M179.29,201.18a25.71,25.71,0,0,1-6.33,4.09,46.59,46.59,0,0,1-19.39,4A45.3,45.3,0,0,1,136.06,206a26.45,26.45,0,0,1-7.35-4.6,1.4,1.4,0,0,0-2.35,1.17v0l1.11,7.26a2.7,2.7,0,0,0,1.19,1.86,45.88,45.88,0,0,0,50.64,0,2.7,2.7,0,0,0,1.19-1.86l1.11-7.26a2.79,2.79,0,0,0,0-.38A1.4,1.4,0,0,0,179.29,201.18Z"/><path class="cls-3" d="M175.07,217.33a48.48,48.48,0,0,1-42.18,0,2.72,2.72,0,0,0-3.84,2.87h0a2.7,2.7,0,0,0,1.29,1.93,45.75,45.75,0,0,0,47.28,0,2.72,2.72,0,0,0-2.55-4.8Z"/><path class="cls-3" d="M173.63,227.38a48.36,48.36,0,0,1-39.28,0,2.72,2.72,0,0,0-3.75,2.91l0,.17a2.7,2.7,0,0,0,1.4,2,45.55,45.55,0,0,0,43.94,0,2.71,2.71,0,0,0,1.4-2l0-.17A2.71,2.71,0,0,0,173.63,227.38Z"/><path class="cls-3" d="M170.56,238a48.1,48.1,0,0,1-33.15,0,2.73,2.73,0,0,0-3.16,4.1,20.15,20.15,0,0,0,14,9,41.71,41.71,0,0,0,11.48,0,20.15,20.15,0,0,0,14-9A2.73,2.73,0,0,0,170.56,238Z"/><path class="cls-4" d="M154,139.09h0V163a3.36,3.36,0,0,1,3.36,3.36v14.79c5.56-10.87,11-23.06,11-27.71A14.39,14.39,0,0,0,154,139.09Z"/><path class="cls-5" d="M179.29,201.18a25.71,25.71,0,0,1-6.33,4.09,46.47,46.47,0,0,1-19,4v10h0a47.58,47.58,0,0,0,25.32-7.62,2.7,2.7,0,0,0,1.19-1.86l1.11-7.26a2.79,2.79,0,0,0,0-.38A1.4,1.4,0,0,0,179.29,201.18Z"/><path class="cls-5" d="M175.07,217.33A49.38,49.38,0,0,1,154,222.16h0v6.55h0a47.44,47.44,0,0,0,23.64-6.58,2.72,2.72,0,0,0-2.55-4.8Z"/><path class="cls-5" d="M173.63,227.38A49.18,49.18,0,0,1,154,231.55h0v6.55h0a47.13,47.13,0,0,0,22-5.65,2.71,2.71,0,0,0,1.4-2l0-.17A2.71,2.71,0,0,0,173.63,227.38Z"/><path class="cls-5" d="M170.56,238A48.72,48.72,0,0,1,154,240.94h0v10.53h0a40.1,40.1,0,0,0,5.74-.4,20.15,20.15,0,0,0,14-9A2.73,2.73,0,0,0,170.56,238Z"/><path class="cls-6" d="M144.11,205.47s12.22,1.79,23.7-1.25l2.37-16.07L179,171.8l5.8-19.67-3.12-18.33-9.12-14.33-13-4.67-19.91,3.67-5.82,11.67s-2.86,12.33-3.23,14-1.29,14.53,0,16.26,2.17,15.74,3.23,17.07,4.73,10.69,4.73,10.69l1.09,6.65v8.33Z"/><path class="cls-7" d="M152.51,58.32A61.53,61.53,0,0,0,108.3,161.06a56.57,56.57,0,0,1,10.14,15.63l6,14a23.9,23.9,0,0,0,12.75,12.7,41.23,41.23,0,0,0,13.47,3V195.41c-3.17-5.64-17.74-32.13-17.74-41.95a21.1,21.1,0,0,1,42.19,0c0,9.81-14.57,36.31-17.74,41.95v10.87a42.63,42.63,0,0,0,14.44-3.6,23.66,23.66,0,0,0,11.89-12.31l5.89-13.79a55.81,55.81,0,0,1,10.05-15.46A61.53,61.53,0,0,0,152.51,58.32Z"/><path class="cls-7" d="M154,139.09a14.39,14.39,0,0,0-14.38,14.38c0,4.65,5.46,16.84,11,27.71V166.38a3.36,3.36,0,1,1,6.72,0v14.79c5.56-10.87,11-23.06,11-27.71A14.39,14.39,0,0,0,154,139.09Z"/><path class="cls-4" d="M154,58.33v74h0a21.12,21.12,0,0,1,21.1,21.09c0,9.81-14.57,36.31-17.74,41.95v10.87a42.63,42.63,0,0,0,14.44-3.6,23.66,23.66,0,0,0,11.89-12.31l5.89-13.79a55.81,55.81,0,0,1,10.05-15.46A61.51,61.51,0,0,0,154,58.33Z"/></g></g></svg>