<svg xmlns="http://www.w3.org/2000/svg" xmlns:xlink="http://www.w3.org/1999/xlink" viewBox="0 0 283.39 217.71"><defs><style>.cls-1,.cls-15{fill:#fff;}.cls-2{fill:#efefef;}.cls-16,.cls-3{fill:#444;}.cls-3,.cls-7{opacity:0.9;}.cls-4{fill:#bcbcbc;}.cls-5{opacity:0.35;}.cls-6{clip-path:url(#clip-path);}.cls-8{isolation:isolate;}.cls-9{fill:#c5c5c5;}.cls-10{fill:#818181;}.cls-11{fill:gray;}.cls-12{fill:#cdcdcd;}.cls-13{fill:#b7b7b7;}.cls-14{fill:#828282;}.cls-15{opacity:0.72;}.cls-17{fill:#bababa;}.cls-18{fill:#e21b1b;}.cls-19{fill:none;stroke:#d13434;stroke-linecap:round;stroke-miterlimit:10;stroke-width:2px;}.cls-20{fill:#d13434;}</style><clipPath id="clip-path"><rect class="cls-1" x="11.43" y="54.27" width="161.86" height="100.75"/></clipPath></defs><title>Asset 117</title><g id="Layer_2" data-name="Layer 2"><g id="Layer_4" data-name="Layer 4"><circle class="cls-2" cx="113.42" cy="109.53" r="108.18"/><path class="cls-3" d="M4.27,162.18V50.69a3.64,3.64,0,0,1,3.58-3.58h169a3.64,3.64,0,0,1,3.58,3.58V162.18Z"/><path class="cls-4" d="M180.44,162.18v14.31a3.64,3.64,0,0,1-3.58,3.58H7.85a3.64,3.64,0,0,1-3.58-3.58V162.18Z"/><rect class="cls-4" x="54.64" y="205.39" width="75.42" height="3.58"/><polygon class="cls-3" points="117.41 205.39 67.31 205.39 70.89 180.07 113.83 180.07 117.41 205.39"/><polygon class="cls-5" points="70.9 180.07 113.84 180.07 115.84 194.2 70.26 184.62 70.9 180.07"/><rect class="cls-1" x="11.43" y="54.27" width="161.86" height="100.75"/><g class="cls-6"><g class="cls-7"><g class="cls-8"><polygon class="cls-9" points="8.05 88.31 195.36 172.88 195.36 173.01 8.05 88.44 8.05 88.31"/><polygon class="cls-10" points="32.53 78.09 219.84 162.66 195.36 172.88 8.05 88.31 32.53 78.09"/><polygon class="cls-9" points="32.36 71.23 219.67 155.79 219.84 162.66 32.53 78.09 32.36 71.23"/><polygon class="cls-9" points="33.06 98.82 220.38 183.39 220.55 190.26 33.23 105.69 33.06 98.82"/><polygon class="cls-11" points="33.23 105.69 220.55 190.26 187.46 175.7 0.15 91.13 33.23 105.69"/><polygon class="cls-12" points="32.36 71.23 32.53 78.09 8.05 88.31 8.05 88.44 33.06 98.82 33.23 105.69 0.15 91.13 0 85.57 32.36 71.23"/></g><g class="cls-8"><polygon class="cls-13" points="58.62 61.4 245.94 145.97 232.56 192.89 45.24 108.32 58.62 61.4"/><polygon class="cls-11" points="45.24 108.32 232.56 192.89 225.67 192.87 38.36 108.3 45.24 108.32"/><polygon class="cls-12" points="51.74 61.38 58.62 61.4 45.24 108.32 38.36 108.3 51.74 61.38"/></g><g class="cls-8"><polygon class="cls-11" points="88.56 88.59 275.88 173.16 250.33 162.77 63.01 78.2 88.56 88.59"/><polygon class="cls-14" points="96.08 91.65 283.39 176.22 251.03 190.37 63.72 105.8 96.08 91.65"/><polygon class="cls-9" points="95.92 85.69 283.24 170.26 283.39 176.22 96.08 91.65 95.92 85.69"/><polygon class="cls-12" points="62.84 71.33 95.92 85.69 96.08 91.65 63.72 105.8 63.55 98.93 88.58 88.71 88.56 88.59 63.01 78.2 62.84 71.33"/></g></g><rect class="cls-15" x="21.96" y="75.29" width="165.08" height="93.54"/></g><g class="cls-7"><path class="cls-16" d="M46.44,105.53,77.76,91v6.92L54.07,108.27v.13l23.69,10.38v6.92L46.44,111.14v-5.61Z"/><path class="cls-16" d="M82.6,128.31,96.57,81h6.59l-14,47.31H82.6Z"/><path class="cls-16" d="M138.27,111.34,106.95,125.7v-6.92l24.21-10.38v-.13L106.95,97.9V91l31.32,14.36Z"/></g><path class="cls-2" d="M144.35,34.5a40.86,40.86,0,0,0-4.89,9.14c-.05.13-.1.23-.13.31a5.52,5.52,0,0,1-.65-.13c-9.8-2.5-18.91,0-26.35,7.36-7,6.91-9.91,15.51-8.59,25.56a29.35,29.35,0,0,0,9.6,18,28.72,28.72,0,0,0,19.17,7.37h.37c9.42-.12,19-.09,28.27-.06l12.44,0h15.67Z"/><path class="cls-17" d="M170.71,93.46c-11.84,0-23.68-.11-35.52,0-12.25.14-22-8.48-23.46-18.66a20.17,20.17,0,0,1,6.87-18.76,22.57,22.57,0,0,1,21.22-5.45c1.58.37,2.3.21,2.92-1.29,3-7.17,8.39-12.63,15.89-16.26a35.37,35.37,0,0,1,38.75,5.58A30.13,30.13,0,0,1,206.85,68c-.19.94-.12,1.26,1.06,1.35,4,.31,7.36,1.69,9.77,4.6,3.33,4,3.86,8.46,1.42,12.92-2.24,4.11-6,6.52-11.34,6.53C195.41,93.48,183.06,93.46,170.71,93.46Z"/><path class="cls-18" d="M170.71,95.41l-10.85,0c-8.08,0-16.44,0-24.65.05h-.32a26.33,26.33,0,0,1-16.72-5.9,23,23,0,0,1-8.37-14.43c-1.15-8.06,1.37-14.95,7.49-20.48a24.6,24.6,0,0,1,23-5.9,5.14,5.14,0,0,0,.57.11c0-.06.07-.14.11-.25,3.16-7.58,8.83-13.38,16.84-17.26a37.32,37.32,0,0,1,40.92,5.9A32.87,32.87,0,0,1,209.28,57a31.48,31.48,0,0,1-.35,10.54,15,15,0,0,1,10.25,5.22c3.88,4.71,4.45,9.93,1.63,15.09-2.68,4.92-7.2,7.53-13,7.55-8.78,0-17.72,0-26.35,0H170.71M134,51.86a20.47,20.47,0,0,0-14,5.65,18.34,18.34,0,0,0-6.25,17c1.37,9.57,10.67,17,21.24,17h.27c8.24-.1,16.61-.07,24.7-.05l10.84,0h10.71c8.63,0,17.56,0,26.34,0,4.41,0,7.65-1.87,9.64-5.51s1.65-7.27-1.22-10.75c-1.93-2.34-4.68-3.61-8.42-3.9a3.2,3.2,0,0,1-2.43-1.11,3.08,3.08,0,0,1-.39-2.58,28.61,28.61,0,0,0,.49-10.08,29.06,29.06,0,0,0-9.35-17.48,33.42,33.42,0,0,0-36.58-5.26c-7.13,3.45-12.16,8.59-14.94,15.26-1.23,2.94-3.41,2.84-5.17,2.43A23.76,23.76,0,0,0,134,51.86Z"/><path class="cls-1" d="M134.89,92.51c-11,0-20.77-7.83-22.2-17.82a19.26,19.26,0,0,1,6.56-17.9,21.45,21.45,0,0,1,14.7-5.9,24.84,24.84,0,0,1,5.65.68c1.79.42,3.16.26,4-1.86,2.88-6.9,8.07-12.2,15.42-15.76a34.4,34.4,0,0,1,37.67,5.42,30,30,0,0,1,9.66,18.06,29.55,29.55,0,0,1-.5,10.42,2.17,2.17,0,0,0,.21,1.79,2.27,2.27,0,0,0,1.73.72c4,.31,7,1.7,9.09,4.25,3.1,3.76,3.55,7.74,1.32,11.83s-5.7,6-10.49,6c-8.83,0-17.73,0-26.34,0H170.71l-10.84,0h-.06c-8.07,0-16.42,0-24.64.05Z"/><path class="cls-17" d="M136.58,54.49a18.74,18.74,0,0,0-12.51,4.82c-4.53,3.91-6.39,8.76-5.55,14.43,1.21,8.08,9.53,14.4,18.93,14.4h.24c7.68-.09,15.49-.07,23,0h.05l10.12,0h10c8,0,16.36,0,24.6,0,3.76,0,6.66-1.44,8.2-4.46a6.76,6.76,0,0,0-1-7.11c-1.63-1.89-4-2.93-7.23-3.16A4,4,0,0,1,202.52,72a3.43,3.43,0,0,1-.53-3,32.23,32.23,0,0,0,.45-10.2A24.75,24.75,0,0,0,194,43.76a29.62,29.62,0,0,0-17.49-7.23,30.32,30.32,0,0,0-15.67,2.68c-6.45,3-11,7.41-13.51,13.16-1.59,3.64-4.81,2.92-5.87,2.68A22.34,22.34,0,0,0,136.58,54.49Z"/><line class="cls-19" x1="174.64" y1="1.63" x2="174.64" y2="22.95"/><polyline class="cls-19" points="166.8 24 166.8 13.85 162.77 9.1"/><polyline class="cls-19" points="158.28 27.03 158.28 19.33 154.26 14.59"/><ellipse class="cls-20" cx="154.09" cy="14.46" rx="1.28" ry="1.36"/><ellipse class="cls-20" cx="162.61" cy="8.89" rx="1.28" ry="1.36"/><polyline class="cls-19" points="181.73 24 181.73 13.85 185.76 9.1"/><polyline class="cls-19" points="190.25 27.03 190.25 19.33 194.27 14.59"/><ellipse class="cls-20" cx="194.09" cy="14.81" rx="1.28" ry="1.36"/><ellipse class="cls-20" cx="185.76" cy="9.1" rx="1.28" ry="1.36"/><ellipse class="cls-20" cx="174.64" cy="1.36" rx="1.28" ry="1.36"/></g></g></svg>